solid Exported from Blender-3.6.4
facet normal 0.000288 0.976246 0.216667
outer loop
vertex -48.337814 181.594086 7.200871
vertex -96.378769 188.097412 -22.037355
vertex -95.805344 185.247086 -9.195381
endloop
endfacet
facet normal 0.000089 0.976123 0.217220
outer loop
vertex -48.337814 181.594086 7.200871
vertex -95.805344 185.247086 -9.195381
vertex -109.302322 184.509689 -5.876141
endloop
endfacet
facet normal 0.000171 0.976204 0.216855
outer loop
vertex -48.337814 181.594086 7.200871
vertex -109.302322 184.509689 -5.876141
vertex -108.328682 181.620224 7.130459
endloop
endfacet
facet normal 0.000170 0.976045 0.217566
outer loop
vertex -48.337814 181.594086 7.200871
vertex -108.328682 181.620224 7.130459
vertex -122.263313 180.906494 10.343174
endloop
endfacet
facet normal 0.000129 0.976249 0.216652
outer loop
vertex -4.094151 166.028061 77.316246
vertex -48.337814 181.594086 7.200871
vertex -122.263313 180.906494 10.343174
endloop
endfacet
facet normal -0.000350 0.976070 0.217456
outer loop
vertex -27.250488 160.849976 100.521248
vertex -4.094151 166.028061 77.316246
vertex -122.263313 180.906494 10.343174
endloop
endfacet
facet normal 0.528750 0.218269 -0.820233
outer loop
vertex -48.337814 181.594086 7.200871
vertex -81.040588 167.925079 -17.517822
vertex -96.378769 188.097412 -22.037355
endloop
endfacet
facet normal -0.653262 -0.486597 0.580062
outer loop
vertex -122.263313 180.906494 10.343174
vertex -105.962952 160.852264 11.877630
vertex -27.250488 160.849976 100.521248
endloop
endfacet
facet normal -0.724345 0.248231 0.643200
outer loop
vertex -105.962952 160.852264 11.877630
vertex -134.629852 91.634094 6.307640
vertex -35.866837 107.319305 111.477074
endloop
endfacet
facet normal -0.724345 0.248232 0.643200
outer loop
vertex -35.866837 107.319305 111.477074
vertex -27.250488 160.849976 100.521248
vertex -105.962952 160.852264 11.877630
endloop
endfacet
facet normal 0.703917 0.031919 0.709565
outer loop
vertex -27.250488 160.849976 100.521248
vertex -35.866837 107.319305 111.477074
vertex -4.094151 166.028061 77.316246
endloop
endfacet
facet normal -0.753735 0.357171 -0.551646
outer loop
vertex -81.040588 167.925079 -17.517822
vertex -91.945038 110.312195 -39.920891
vertex -134.629852 91.634094 6.307640
endloop
endfacet
facet normal -0.753160 0.356417 -0.552917
outer loop
vertex -134.629852 91.634094 6.307640
vertex -105.962952 160.852264 11.877630
vertex -98.470184 162.965958 3.033792
endloop
endfacet
facet normal -0.753231 0.356458 -0.552793
outer loop
vertex -134.629852 91.634094 6.307640
vertex -98.470184 162.965958 3.033792
vertex -88.523140 165.796280 -8.694889
endloop
endfacet
facet normal -0.753231 0.356458 -0.552793
outer loop
vertex -81.040588 167.925079 -17.517822
vertex -134.629852 91.634094 6.307640
vertex -88.523140 165.796280 -8.694889
endloop
endfacet
facet normal -0.549652 -0.578707 0.602479
outer loop
vertex -134.629852 91.634094 6.307640
vertex -59.552517 57.308220 41.830448
vertex -35.866837 107.319305 111.477074
endloop
endfacet
facet normal 0.528475 0.218927 -0.820234
outer loop
vertex -48.337814 181.594086 7.200871
vertex -91.945038 110.312195 -39.920891
vertex -81.040588 167.925079 -17.517822
endloop
endfacet
facet normal -0.158479 -0.855953 -0.492168
outer loop
vertex -134.629852 91.634094 6.307640
vertex -91.945038 110.312195 -39.920891
vertex -59.552517 57.308220 41.830448
endloop
endfacet
facet normal -0.000037 0.976227 0.216751
outer loop
vertex -4.094151 166.028061 77.316246
vertex 45.216114 169.254898 62.791313
vertex -48.337814 181.594086 7.200871
endloop
endfacet
facet normal -0.000310 0.976129 0.217190
outer loop
vertex -48.337814 181.594086 7.200871
vertex 45.216114 169.254898 62.791313
vertex -27.205563 191.608551 -37.777668
endloop
endfacet
facet normal -0.760079 0.611106 -0.220974
outer loop
vertex -27.205563 191.608551 -37.777668
vertex -61.405926 125.760201 -102.243942
vertex -91.945038 110.312195 -39.920891
endloop
endfacet
facet normal -0.760066 0.611098 -0.221041
outer loop
vertex -91.945038 110.312195 -39.920891
vertex -48.337814 181.594086 7.200871
vertex -27.205563 191.608551 -37.777668
endloop
endfacet
facet normal 0.257650 -0.665357 0.700654
outer loop
vertex -31.295740 -158.887665 -3.023567
vertex 27.325241 -174.830780 -39.720085
vertex 41.288399 -139.802155 -11.590782
endloop
endfacet
facet normal 0.257620 -0.665143 0.700869
outer loop
vertex -31.295740 -158.887665 -3.023567
vertex 41.288399 -139.802155 -11.590782
vertex 51.391041 -114.439606 8.765495
endloop
endfacet
facet normal 0.258408 -0.666252 0.699524
outer loop
vertex -32.381935 -123.508698 31.073906
vertex -31.295740 -158.887665 -3.023567
vertex 51.391041 -114.439606 8.765495
endloop
endfacet
facet normal -0.578137 -0.688847 -0.437319
outer loop
vertex -57.969414 -166.093445 -67.980675
vertex -88.771896 -124.958923 -92.053154
vertex -47.885639 -129.334686 -139.212357
endloop
endfacet
facet normal -0.576841 -0.689752 -0.437603
outer loop
vertex -47.885639 -129.334686 -139.212357
vertex -15.481307 -179.344330 -103.101723
vertex -57.969414 -166.093445 -67.980675
endloop
endfacet
facet normal -0.203853 -0.975296 -0.085100
outer loop
vertex -88.771896 -124.958923 -92.053154
vertex -97.370071 -118.797424 -142.071350
vertex -66.395035 -123.284973 -164.840805
endloop
endfacet
facet normal -0.201905 -0.975752 -0.084511
outer loop
vertex -66.395035 -123.284973 -164.840805
vertex -47.885639 -129.334686 -139.212357
vertex -88.771896 -124.958923 -92.053154
endloop
endfacet
facet normal -0.783219 -0.259123 -0.565176
outer loop
vertex -115.930061 -106.450104 -181.617157
vertex -121.895859 -75.337891 -187.614136
vertex -104.558357 -78.039124 -210.401917
endloop
endfacet
facet normal -0.782278 -0.260279 -0.565946
outer loop
vertex -104.558357 -78.039124 -210.401917
vertex -97.607185 -106.977661 -206.701309
vertex -115.930061 -106.450104 -181.617157
endloop
endfacet
facet normal -0.264319 -0.948872 -0.172563
outer loop
vertex -97.607185 -106.977661 -206.701309
vertex -66.395035 -123.284973 -164.840805
vertex -97.370071 -118.797424 -142.071350
endloop
endfacet
facet normal -0.263617 -0.949060 -0.172601
outer loop
vertex -97.370071 -118.797424 -142.071350
vertex -115.930061 -106.450104 -181.617157
vertex -97.607185 -106.977661 -206.701309
endloop
endfacet
facet normal -0.912327 -0.098324 0.397482
outer loop
vertex -97.370071 -118.797424 -142.071350
vertex -89.400681 -68.841965 -111.422089
vertex -121.895859 -75.337891 -187.614136
endloop
endfacet
facet normal -0.912327 -0.098323 0.397482
outer loop
vertex -121.895859 -75.337891 -187.614136
vertex -115.930061 -106.450104 -181.617157
vertex -97.370071 -118.797424 -142.071350
endloop
endfacet
facet normal -0.982977 -0.069690 -0.169998
outer loop
vertex -88.771896 -124.958923 -92.053154
vertex -97.968796 -74.250885 -59.661484
vertex -89.400681 -68.841965 -111.422089
endloop
endfacet
facet normal -0.983306 0.049425 0.175120
outer loop
vertex -89.400681 -68.841965 -111.422089
vertex -97.370071 -118.797424 -142.071350
vertex -88.771896 -124.958923 -92.053154
endloop
endfacet
facet normal -0.832481 -0.397521 0.385944
outer loop
vertex -31.295740 -158.887665 -3.023567
vertex -53.047874 -129.410645 -19.581623
vertex -60.891903 -130.783020 -37.914730
endloop
endfacet
facet normal -0.832480 -0.397522 0.385944
outer loop
vertex -60.891903 -130.783020 -37.914730
vertex -57.969414 -166.093445 -67.980675
vertex -31.295740 -158.887665 -3.023567
endloop
endfacet
facet normal -0.832481 -0.397522 0.385943
outer loop
vertex -53.047874 -129.410645 -19.581623
vertex -31.295740 -158.887665 -3.023567
vertex -32.381935 -123.508698 31.073906
endloop
endfacet
facet normal -0.832481 -0.397522 0.385943
outer loop
vertex -57.969414 -166.093445 -67.980675
vertex -60.891903 -130.783020 -37.914730
vertex -88.771896 -124.958923 -92.053154
endloop
endfacet
facet normal -0.832481 -0.397522 0.385943
outer loop
vertex -79.649330 -112.304718 -59.341877
vertex -97.968796 -74.250885 -59.661484
vertex -88.771896 -124.958923 -92.053154
endloop
endfacet
facet normal -0.832481 -0.397522 0.385943
outer loop
vertex -88.771896 -124.958923 -92.053154
vertex -60.891903 -130.783020 -37.914730
vertex -79.649330 -112.304718 -59.341877
endloop
endfacet
facet normal -0.832480 -0.397522 0.385943
outer loop
vertex -53.708725 -107.850067 1.200363
vertex -53.047874 -129.410645 -19.581623
vertex -32.381935 -123.508698 31.073906
endloop
endfacet
facet normal -0.832481 -0.397522 0.385943
outer loop
vertex -32.381935 -123.508698 31.073906
vertex -68.701485 -71.728851 6.065834
vertex -53.708725 -107.850067 1.200363
endloop
endfacet
facet normal -0.832480 -0.397522 0.385943
outer loop
vertex -97.968796 -74.250885 -59.661484
vertex -79.649330 -112.304718 -59.341877
vertex -53.708725 -107.850067 1.200363
endloop
endfacet
facet normal -0.832480 -0.397522 0.385944
outer loop
vertex -53.708725 -107.850067 1.200363
vertex -68.701485 -71.728851 6.065834
vertex -97.968796 -74.250885 -59.661484
endloop
endfacet
facet normal -0.813981 0.501203 0.293649
outer loop
vertex -53.047874 -129.410645 -19.581623
vertex -44.737240 -114.937408 -21.248009
vertex -57.052876 -117.137665 -51.630974
endloop
endfacet
facet normal -0.795330 0.526222 0.300899
outer loop
vertex -57.052876 -117.137665 -51.630974
vertex -60.891903 -130.783020 -37.914730
vertex -53.047874 -129.410645 -19.581623
endloop
endfacet
facet normal -0.082313 0.717954 0.691206
outer loop
vertex -60.891903 -130.783020 -37.914730
vertex -57.052876 -117.137665 -51.630974
vertex -79.649330 -112.304718 -59.341877
endloop
endfacet
facet normal -0.262725 -0.948830 0.175207
outer loop
vertex -79.649330 -112.304718 -59.341877
vertex -57.052876 -117.137665 -51.630974
vertex -44.737240 -114.937408 -21.248009
endloop
endfacet
facet normal -0.275667 -0.942792 0.187485
outer loop
vertex -44.737240 -114.937408 -21.248009
vertex -53.708725 -107.850067 1.200363
vertex -79.649330 -112.304718 -59.341877
endloop
endfacet
facet normal -0.797075 0.406243 -0.446809
outer loop
vertex -53.708725 -107.850067 1.200363
vertex -44.737240 -114.937408 -21.248009
vertex -53.047874 -129.410645 -19.581623
endloop
endfacet
facet normal -0.708128 -0.436918 0.554668
outer loop
vertex -62.167019 33.841232 20.004406
vertex -113.022537 47.246185 -34.362045
vertex -101.679474 12.559433 -47.203846
endloop
endfacet
facet normal -0.708085 -0.436992 0.554666
outer loop
vertex -101.679474 12.559433 -47.203846
vertex -69.489830 -20.934692 -32.498901
vertex -62.167019 33.841232 20.004406
endloop
endfacet
facet normal -0.881837 0.276389 0.382063
outer loop
vertex -68.701485 -71.728851 6.065834
vertex -69.489830 -20.934692 -32.498901
vertex -97.968796 -74.250885 -59.661484
endloop
endfacet
facet normal -0.355606 0.561665 0.747045
outer loop
vertex -1.947704 -55.901779 25.942226
vertex -69.489830 -20.934692 -32.498901
vertex -68.701485 -71.728851 6.065834
endloop
endfacet
facet normal -0.325380 0.216345 0.920501
outer loop
vertex -68.701485 -71.728851 6.065834
vertex -32.381935 -123.508698 31.073906
vertex -1.947704 -55.901779 25.942226
endloop
endfacet
facet normal -0.843050 0.430134 0.322881
outer loop
vertex -89.400681 -68.841965 -111.422089
vertex -41.500153 14.869919 -97.871490
vertex -121.895859 -75.337891 -187.614136
endloop
endfacet
facet normal -0.428112 0.799917 -0.420539
outer loop
vertex -121.895859 -75.337891 -187.614136
vertex -41.500153 14.869919 -97.871490
vertex -104.558357 -78.039124 -210.401917
endloop
endfacet
facet normal -0.571777 -0.542147 -0.615750
outer loop
vertex -109.302322 184.509689 -5.876141
vertex -88.523140 165.796280 -8.694889
vertex -98.470184 162.965958 3.033792
endloop
endfacet
facet normal -0.869124 -0.177614 -0.461602
outer loop
vertex -41.500153 14.869919 -97.871490
vertex -51.334114 32.424820 -86.110504
vertex -73.772926 90.271446 -66.120026
endloop
endfacet
facet normal -0.866625 -0.174006 -0.467635
outer loop
vertex -73.772926 90.271446 -66.120026
vertex -61.405926 125.760201 -102.243942
vertex -41.500153 14.869919 -97.871490
endloop
endfacet
facet normal -0.707111 -0.437743 0.555314
outer loop
vertex -62.167019 33.841232 20.004406
vertex -69.489830 -20.934692 -32.498901
vertex -1.947704 -55.901779 25.942226
endloop
endfacet
facet normal -0.707096 -0.437731 0.555343
outer loop
vertex -59.552517 57.308220 41.830448
vertex -62.167019 33.841232 20.004406
vertex -1.947704 -55.901779 25.942226
endloop
endfacet
facet normal -0.707363 -0.437811 0.554941
outer loop
vertex -59.552517 57.308220 41.830448
vertex -1.947704 -55.901779 25.942226
vertex -35.866837 107.319305 111.477074
endloop
endfacet
facet normal -0.858013 0.505602 -0.090445
outer loop
vertex -69.489830 -20.934692 -32.498901
vertex -41.500153 14.869919 -97.871490
vertex -89.400681 -68.841965 -111.422089
endloop
endfacet
facet normal -0.858858 0.504341 -0.089467
outer loop
vertex -89.400681 -68.841965 -111.422089
vertex -97.968796 -74.250885 -59.661484
vertex -69.489830 -20.934692 -32.498901
endloop
endfacet
facet normal -0.228188 0.092259 -0.969236
outer loop
vertex -108.328682 181.620224 7.130459
vertex -98.470184 162.965958 3.033792
vertex -122.263313 180.906494 10.343174
endloop
endfacet
facet normal -0.886796 -0.460758 -0.035976
outer loop
vertex -109.302322 184.509689 -5.876141
vertex -98.470184 162.965958 3.033792
vertex -108.328682 181.620224 7.130459
endloop
endfacet
facet normal -0.935598 -0.351210 -0.036175
outer loop
vertex -88.523140 165.796280 -8.694889
vertex -95.805344 185.247086 -9.195381
vertex -96.378769 188.097412 -22.037355
endloop
endfacet
facet normal -0.559144 -0.561760 -0.609741
outer loop
vertex -96.378769 188.097412 -22.037355
vertex -81.040588 167.925079 -17.517822
vertex -88.523140 165.796280 -8.694889
endloop
endfacet
facet normal -0.231567 -0.111563 -0.966401
outer loop
vertex -88.523140 165.796280 -8.694889
vertex -109.302322 184.509689 -5.876141
vertex -95.805344 185.247086 -9.195381
endloop
endfacet
facet normal -0.584735 -0.522746 -0.620340
outer loop
vertex -122.263313 180.906494 10.343174
vertex -98.470184 162.965958 3.033792
vertex -105.962952 160.852264 11.877630
endloop
endfacet
facet normal -0.949260 -0.150880 0.275935
outer loop
vertex -86.488152 79.667091 -38.606750
vertex -62.167019 33.841232 20.004406
vertex -59.552517 57.308220 41.830448
endloop
endfacet
facet normal -0.948789 -0.157198 0.274021
outer loop
vertex -59.552517 57.308220 41.830448
vertex -91.945038 110.312195 -39.920891
vertex -86.488152 79.667091 -38.606750
endloop
endfacet
facet normal -0.867110 -0.172732 -0.467209
outer loop
vertex -68.278969 10.354553 -46.502319
vertex -51.334114 32.424820 -86.110504
vertex -41.500153 14.869919 -97.871490
endloop
endfacet
facet normal -0.866565 -0.175546 -0.467172
outer loop
vertex -41.500153 14.869919 -97.871490
vertex -69.489830 -20.934692 -32.498901
vertex -68.278969 10.354553 -46.502319
endloop
endfacet
facet normal -0.898761 -0.139854 -0.415535
outer loop
vertex -113.022537 47.246185 -34.362045
vertex -94.608627 61.828766 -79.097542
vertex -86.232605 35.534607 -88.364380
endloop
endfacet
facet normal -0.898751 -0.140085 -0.415480
outer loop
vertex -86.232605 35.534607 -88.364380
vertex -101.679474 12.559433 -47.203846
vertex -113.022537 47.246185 -34.362045
endloop
endfacet
facet normal -0.866511 -0.174192 -0.467778
outer loop
vertex -91.945038 110.312195 -39.920891
vertex -61.405926 125.760201 -102.243942
vertex -73.772926 90.271446 -66.120026
endloop
endfacet
facet normal -0.866536 -0.174356 -0.467670
outer loop
vertex -73.772926 90.271446 -66.120026
vertex -86.488152 79.667091 -38.606750
vertex -91.945038 110.312195 -39.920891
endloop
endfacet
facet normal -0.007777 -0.408239 -0.912842
outer loop
vertex -69.489830 -20.934692 -32.498901
vertex -101.679474 12.559433 -47.203846
vertex -68.278969 10.354553 -46.502319
endloop
endfacet
facet normal -0.046577 -0.864693 -0.500137
outer loop
vertex -68.278969 10.354553 -46.502319
vertex -101.679474 12.559433 -47.203846
vertex -86.232605 35.534607 -88.364380
endloop
endfacet
facet normal -0.044685 -0.864418 -0.500784
outer loop
vertex -86.232605 35.534607 -88.364380
vertex -51.334114 32.424820 -86.110504
vertex -68.278969 10.354553 -46.502319
endloop
endfacet
facet normal 0.091840 0.356883 -0.929624
outer loop
vertex -51.334114 32.424820 -86.110504
vertex -86.232605 35.534607 -88.364380
vertex -94.608627 61.828766 -79.097542
endloop
endfacet
facet normal 0.091839 0.356882 -0.929624
outer loop
vertex -94.608627 61.828766 -79.097542
vertex -73.772926 90.271446 -66.120026
vertex -51.334114 32.424820 -86.110504
endloop
endfacet
facet normal -0.775089 0.620998 -0.116611
outer loop
vertex -73.772926 90.271446 -66.120026
vertex -94.608627 61.828766 -79.097542
vertex -113.022537 47.246185 -34.362045
endloop
endfacet
facet normal -0.775916 0.619341 -0.119878
outer loop
vertex -113.022537 47.246185 -34.362045
vertex -86.488152 79.667091 -38.606750
vertex -73.772926 90.271446 -66.120026
endloop
endfacet
facet normal -0.548298 0.533105 0.644335
outer loop
vertex -86.488152 79.667091 -38.606750
vertex -113.022537 47.246185 -34.362045
vertex -62.167019 33.841232 20.004406
endloop
endfacet
facet normal -0.988743 -0.042774 0.143376
outer loop
vertex 9.412720 146.621750 164.671906
vertex -4.094151 166.028061 77.316246
vertex 1.766251 108.891411 100.684479
endloop
endfacet
facet normal -0.988743 -0.042774 0.143376
outer loop
vertex 1.766251 108.891411 100.684479
vertex 6.467796 88.362061 126.982399
vertex 9.412720 146.621750 164.671906
endloop
endfacet
facet normal -0.988743 -0.042774 0.143376
outer loop
vertex 6.467796 88.362061 126.982399
vertex 1.766251 108.891411 100.684479
vertex 14.701553 19.686935 163.275345
endloop
endfacet
facet normal -0.988741 -0.042756 0.143401
outer loop
vertex 14.701553 19.686935 163.275345
vertex 1.766251 108.891411 100.684479
vertex -1.947704 -55.901779 25.942226
endloop
endfacet
facet normal -0.988450 -0.045132 0.144673
outer loop
vertex -1.947704 -55.901779 25.942226
vertex 6.569576 -18.426254 95.825577
vertex 14.701553 19.686935 163.275345
endloop
endfacet
facet normal -0.988735 -0.042760 0.143436
outer loop
vertex 6.569576 -18.426254 95.825577
vertex -1.947704 -55.901779 25.942226
vertex 12.953522 -103.337158 114.518303
endloop
endfacet
facet normal 0.110768 -0.543772 0.831891
outer loop
vertex 6.467796 88.362061 126.982399
vertex 23.927540 88.812988 124.952324
vertex 26.866161 147.072418 162.642761
endloop
endfacet
facet normal 0.110757 -0.543770 0.831894
outer loop
vertex 26.866161 147.072418 162.642761
vertex 9.412720 146.621750 164.671906
vertex 6.467796 88.362061 126.982399
endloop
endfacet
facet normal 0.089621 0.473739 0.876093
outer loop
vertex 14.701553 19.686935 163.275345
vertex 32.154686 20.137604 161.246246
vertex 23.927540 88.812988 124.952324
endloop
endfacet
facet normal 0.089630 0.473738 0.876093
outer loop
vertex 23.927540 88.812988 124.952324
vertex 6.467796 88.362061 126.982399
vertex 14.701553 19.686935 163.275345
endloop
endfacet
facet normal 0.074435 -0.871540 0.484641
outer loop
vertex 6.569576 -18.426254 95.825577
vertex 24.062763 -17.914978 94.058296
vertex 32.154686 20.137604 161.246246
endloop
endfacet
facet normal 0.078694 -0.871955 0.483220
outer loop
vertex 32.154686 20.137604 161.246246
vertex 14.701553 19.686935 163.275345
vertex 6.569576 -18.426254 95.825577
endloop
endfacet
facet normal 0.091641 0.220661 0.971036
outer loop
vertex 12.953522 -103.337158 114.518303
vertex 30.403759 -102.507690 112.682953
vertex 24.062763 -17.914978 94.058296
endloop
endfacet
facet normal 0.091651 0.220659 0.971035
outer loop
vertex 24.062763 -17.914978 94.058296
vertex 6.569576 -18.426254 95.825577
vertex 12.953522 -103.337158 114.518303
endloop
endfacet
facet normal 0.000006 0.976202 0.216865
outer loop
vertex 9.412720 146.621750 164.671906
vertex 26.866161 147.072418 162.642761
vertex -4.094151 166.028061 77.316246
endloop
endfacet
facet normal 0.743173 -0.389466 0.544067
outer loop
vertex 23.927540 88.812988 124.952324
vertex 65.151268 99.606110 76.368584
vertex 75.686821 159.854523 105.105774
endloop
endfacet
facet normal 0.743173 -0.389466 0.544068
outer loop
vertex 75.686821 159.854523 105.105774
vertex 26.866161 147.072418 162.642761
vertex 23.927540 88.812988 124.952324
endloop
endfacet
facet normal 0.645817 0.415782 0.640349
outer loop
vertex 32.154686 20.137604 161.246246
vertex 88.063896 34.775589 95.355118
vertex 65.151268 99.606110 76.368584
endloop
endfacet
facet normal 0.645816 0.415782 0.640349
outer loop
vertex 65.151268 99.606110 76.368584
vertex 23.927540 88.812988 124.952324
vertex 32.154686 20.137604 161.246246
endloop
endfacet
facet normal 0.593398 -0.729167 0.340872
outer loop
vertex 24.062763 -17.914978 94.058296
vertex 62.495880 -7.879257 48.620682
vertex 88.063896 34.775589 95.355118
endloop
endfacet
facet normal 0.593262 -0.729015 0.341434
outer loop
vertex 88.063896 34.775589 95.355118
vertex 32.154686 20.137604 161.246246
vertex 24.062763 -17.914978 94.058296
endloop
endfacet
facet normal 0.725792 0.199542 0.658338
outer loop
vertex 30.403759 -102.507690 112.682953
vertex 72.510246 -56.681549 52.372234
vertex 62.495880 -7.879257 48.620682
endloop
endfacet
facet normal 0.726035 0.199324 0.658136
outer loop
vertex 62.495880 -7.879257 48.620682
vertex 24.062763 -17.914978 94.058296
vertex 30.403759 -102.507690 112.682953
endloop
endfacet
facet normal -0.007620 -0.882054 -0.471087
outer loop
vertex 30.403759 -102.507690 112.682953
vertex 12.953522 -103.337158 114.518303
vertex -1.947704 -55.901779 25.942226
endloop
endfacet
facet normal 0.010553 -0.879202 -0.476332
outer loop
vertex -1.947704 -55.901779 25.942226
vertex 44.699673 -48.669144 13.625862
vertex 30.403759 -102.507690 112.682953
endloop
endfacet
facet normal 0.238989 0.388482 0.889925
outer loop
vertex 1.766251 108.891411 100.684479
vertex -4.094151 166.028061 77.316246
vertex -35.866837 107.319305 111.477074
endloop
endfacet
facet normal 0.267815 -0.402964 0.875155
outer loop
vertex 1.766251 108.891411 100.684479
vertex -35.866837 107.319305 111.477074
vertex -1.947704 -55.901779 25.942226
endloop
endfacet
facet normal 0.261575 -0.044568 0.964154
outer loop
vertex -1.947704 -55.901779 25.942226
vertex -32.381935 -123.508698 31.073906
vertex 51.391041 -114.439606 8.765495
endloop
endfacet
facet normal 0.261494 -0.044647 0.964172
outer loop
vertex 51.391041 -114.439606 8.765495
vertex 44.699673 -48.669144 13.625862
vertex -1.947704 -55.901779 25.942226
endloop
endfacet
facet normal 0.331310 -0.848230 -0.413207
outer loop
vertex 30.403759 -102.507690 112.682953
vertex 44.699673 -48.669144 13.625862
vertex 72.510246 -56.681549 52.372234
endloop
endfacet
facet normal -0.000000 0.976201 0.216867
outer loop
vertex -4.094151 166.028061 77.316246
vertex 26.866161 147.072418 162.642761
vertex 75.686821 159.854523 105.105774
endloop
endfacet
facet normal -0.000001 0.976201 0.216869
outer loop
vertex 75.686821 159.854523 105.105774
vertex 45.216114 169.254898 62.791313
vertex -4.094151 166.028061 77.316246
endloop
endfacet
facet normal -0.155405 -0.972370 0.174202
outer loop
vertex -15.481307 -179.344330 -103.101723
vertex 27.325241 -174.830780 -39.720085
vertex -31.295740 -158.887665 -3.023567
endloop
endfacet
facet normal -0.159746 -0.971809 0.173401
outer loop
vertex -31.295740 -158.887665 -3.023567
vertex -57.969414 -166.093445 -67.980675
vertex -15.481307 -179.344330 -103.101723
endloop
endfacet
facet normal -0.000288 0.976157 0.217065
outer loop
vertex 23.571205 203.446060 -91.115631
vertex 11.387619 204.526428 -95.990318
vertex 23.307562 192.516434 -41.964622
endloop
endfacet
facet normal 0.000304 0.976156 0.217068
outer loop
vertex 31.339943 205.950638 -102.389648
vertex 23.571205 203.446060 -91.115631
vertex 23.307562 192.516434 -41.964622
endloop
endfacet
facet normal -0.000071 0.976167 0.217020
outer loop
vertex 43.547234 204.773743 -97.091965
vertex 31.339943 205.950638 -102.389648
vertex 23.307562 192.516434 -41.964622
endloop
endfacet
facet normal 0.000620 0.976114 0.217259
outer loop
vertex 51.361465 207.375641 -108.804062
vertex 43.547234 204.773743 -97.091965
vertex 23.307562 192.516434 -41.964622
endloop
endfacet
facet normal -0.000252 0.976191 0.216913
outer loop
vertex 75.910362 178.224762 22.414423
vertex 51.361465 207.375641 -108.804062
vertex 23.307562 192.516434 -41.964622
endloop
endfacet
facet normal 0.000685 0.976228 0.216746
outer loop
vertex 106.121597 181.182587 8.996782
vertex 51.361465 207.375641 -108.804062
vertex 75.910362 178.224762 22.414423
endloop
endfacet
facet normal -0.976977 -0.011280 0.213047
outer loop
vertex 23.307562 192.516434 -41.964622
vertex 11.387619 204.526428 -95.990318
vertex 14.462776 182.484589 -83.055489
endloop
endfacet
facet normal 0.853274 -0.256925 -0.453776
outer loop
vertex 51.361465 207.375641 -108.804062
vertex 106.121597 181.182587 8.996782
vertex 51.344814 184.833862 -96.072319
endloop
endfacet
facet normal 0.785385 0.478390 -0.392828
outer loop
vertex 51.344814 184.833862 -96.072319
vertex 106.121597 181.182587 8.996782
vertex 130.025726 132.609665 -2.364061
endloop
endfacet
facet normal 0.785385 0.478390 -0.392828
outer loop
vertex 130.025726 132.609665 -2.364061
vertex 70.058311 122.838852 -134.156357
vertex 51.344814 184.833862 -96.072319
endloop
endfacet
facet normal 0.406952 -0.013353 0.913352
outer loop
vertex 106.121597 181.182587 8.996782
vertex 75.910362 178.224762 22.414423
vertex 130.025726 132.609665 -2.364061
endloop
endfacet
facet normal -0.325635 0.421593 -0.846298
outer loop
vertex 40.253288 184.114380 -92.162971
vertex 51.344814 184.833862 -96.072319
vertex 70.058311 122.838852 -134.156357
endloop
endfacet
facet normal -0.325507 0.421664 -0.846312
outer loop
vertex 25.534733 183.184433 -86.965279
vertex 40.253288 184.114380 -92.162971
vertex 70.058311 122.838852 -134.156357
endloop
endfacet
facet normal -0.325507 0.421665 -0.846312
outer loop
vertex 14.462776 182.484589 -83.055489
vertex 25.534733 183.184433 -86.965279
vertex 70.058311 122.838852 -134.156357
endloop
endfacet
facet normal -0.324428 0.422618 -0.846250
outer loop
vertex 14.462776 182.484589 -83.055489
vertex 70.058311 122.838852 -134.156357
vertex 9.332546 125.751984 -109.421013
endloop
endfacet
facet normal 0.857585 -0.364174 -0.363215
outer loop
vertex 70.058311 122.838852 -134.156357
vertex 130.025726 132.609665 -2.364061
vertex 84.275436 79.234825 -56.869198
endloop
endfacet
facet normal -0.977019 -0.010585 0.212887
outer loop
vertex 23.307562 192.516434 -41.964622
vertex 14.462776 182.484589 -83.055489
vertex 9.332546 125.751984 -109.421013
endloop
endfacet
facet normal -0.223764 -0.865906 -0.447367
outer loop
vertex 70.058311 122.838852 -134.156357
vertex 84.275436 79.234825 -56.869198
vertex 9.332546 125.751984 -109.421013
endloop
endfacet
facet normal -0.000100 0.976217 0.216794
outer loop
vertex 75.910362 178.224762 22.414423
vertex 23.307562 192.516434 -41.964622
vertex 45.216114 169.254898 62.791313
endloop
endfacet
facet normal 0.000415 0.976240 0.216692
outer loop
vertex 23.307562 192.516434 -41.964622
vertex -27.205563 191.608551 -37.777668
vertex 45.216114 169.254898 62.791313
endloop
endfacet
facet normal -0.070422 0.716234 -0.694298
outer loop
vertex -27.205563 191.608551 -37.777668
vertex 23.307562 192.516434 -41.964622
vertex 9.332546 125.751984 -109.421013
endloop
endfacet
facet normal -0.070358 0.716254 -0.694283
outer loop
vertex 9.332546 125.751984 -109.421013
vertex -61.405926 125.760201 -102.243942
vertex -27.205563 191.608551 -37.777668
endloop
endfacet
facet normal 0.692137 -0.599119 0.402495
outer loop
vertex 41.288399 -139.802155 -11.590782
vertex 27.325241 -174.830780 -39.720085
vertex 77.625580 -142.282593 -77.769089
endloop
endfacet
facet normal 0.692302 -0.598875 0.402575
outer loop
vertex 51.391041 -114.439606 8.765495
vertex 41.288399 -139.802155 -11.590782
vertex 77.625580 -142.282593 -77.769089
endloop
endfacet
facet normal 0.691025 -0.600300 0.402647
outer loop
vertex 102.094261 -103.007782 -61.208241
vertex 51.391041 -114.439606 8.765495
vertex 77.625580 -142.282593 -77.769089
endloop
endfacet
facet normal -0.065923 -0.611863 -0.788212
outer loop
vertex 28.459538 -152.917328 -127.291161
vertex -15.481307 -179.344330 -103.101723
vertex -47.885639 -129.334686 -139.212357
endloop
endfacet
facet normal -0.065409 -0.610682 -0.789170
outer loop
vertex -47.885639 -129.334686 -139.212357
vertex 8.381706 -110.147858 -158.723267
vertex 28.459538 -152.917328 -127.291161
endloop
endfacet
facet normal 0.189840 -0.916031 -0.353340
outer loop
vertex 8.381706 -110.147858 -158.723267
vertex -47.885639 -129.334686 -139.212357
vertex -66.395035 -123.284973 -164.840805
endloop
endfacet
facet normal 0.189865 -0.915274 -0.355282
outer loop
vertex -66.395035 -123.284973 -164.840805
vertex -35.909248 -109.427734 -184.247849
vertex 8.381706 -110.147858 -158.723267
endloop
endfacet
facet normal -0.201903 -0.171801 -0.964220
outer loop
vertex -68.470497 -99.214905 -214.185516
vertex -97.607185 -106.977661 -206.701309
vertex -104.558357 -78.039124 -210.401917
endloop
endfacet
facet normal -0.201111 -0.170381 -0.964637
outer loop
vertex -104.558357 -78.039124 -210.401917
vertex -78.308167 -68.692932 -217.525497
vertex -68.470497 -99.214905 -214.185516
endloop
endfacet
facet normal 0.124370 -0.889912 -0.438850
outer loop
vertex -97.607185 -106.977661 -206.701309
vertex -68.470497 -99.214905 -214.185516
vertex -35.909248 -109.427734 -184.247849
endloop
endfacet
facet normal 0.124603 -0.889581 -0.439454
outer loop
vertex -35.909248 -109.427734 -184.247849
vertex -66.395035 -123.284973 -164.840805
vertex -97.607185 -106.977661 -206.701309
endloop
endfacet
facet normal 0.694038 0.146566 -0.704862
outer loop
vertex -35.909248 -109.427734 -184.247849
vertex -68.470497 -99.214905 -214.185516
vertex -78.308167 -68.692932 -217.525497
endloop
endfacet
facet normal 0.694038 0.146566 -0.704861
outer loop
vertex -78.308167 -68.692932 -217.525497
vertex -20.648197 -58.360626 -158.602386
vertex -35.909248 -109.427734 -184.247849
endloop
endfacet
facet normal 0.483665 0.273065 -0.831567
outer loop
vertex 8.381706 -110.147858 -158.723267
vertex -35.909248 -109.427734 -184.247849
vertex -20.648197 -58.360626 -158.602386
endloop
endfacet
facet normal 0.190852 0.109261 -0.975519
outer loop
vertex -20.648197 -58.360626 -158.602386
vertex 30.901272 -54.604614 -148.096527
vertex 8.381706 -110.147858 -158.723267
endloop
endfacet
facet normal 0.717463 -0.161233 -0.677680
outer loop
vertex 77.625580 -142.282593 -77.769089
vertex 28.459538 -152.917328 -127.291161
vertex 49.860683 -113.898773 -113.916931
endloop
endfacet
facet normal 0.717463 -0.161233 -0.677680
outer loop
vertex 49.860683 -113.898773 -113.916931
vertex 63.765064 -111.602509 -99.742645
vertex 77.625580 -142.282593 -77.769089
endloop
endfacet
facet normal 0.717463 -0.161233 -0.677681
outer loop
vertex 63.765064 -111.602509 -99.742645
vertex 102.094261 -103.007782 -61.208241
vertex 77.625580 -142.282593 -77.769089
endloop
endfacet
facet normal 0.717462 -0.161233 -0.677681
outer loop
vertex 28.459538 -152.917328 -127.291161
vertex 8.381706 -110.147858 -158.723267
vertex 49.860683 -113.898773 -113.916931
endloop
endfacet
facet normal 0.717463 -0.161233 -0.677681
outer loop
vertex 32.758194 -95.168182 -136.479752
vertex 49.860683 -113.898773 -113.916931
vertex 8.381706 -110.147858 -158.723267
endloop
endfacet
facet normal 0.717462 -0.161233 -0.677681
outer loop
vertex 8.381706 -110.147858 -158.723267
vertex 30.901272 -54.604614 -148.096527
vertex 32.758194 -95.168182 -136.479752
endloop
endfacet
facet normal 0.717463 -0.161233 -0.677681
outer loop
vertex 78.678513 -87.667603 -89.648270
vertex 80.852524 -48.929321 -96.563217
vertex 102.094261 -103.007782 -61.208241
endloop
endfacet
facet normal 0.717463 -0.161232 -0.677681
outer loop
vertex 102.094261 -103.007782 -61.208241
vertex 63.765064 -111.602509 -99.742645
vertex 78.678513 -87.667603 -89.648270
endloop
endfacet
facet normal 0.717463 -0.161233 -0.677681
outer loop
vertex 30.901272 -54.604614 -148.096527
vertex 80.852524 -48.929321 -96.563217
vertex 78.678513 -87.667603 -89.648270
endloop
endfacet
facet normal 0.717463 -0.161233 -0.677680
outer loop
vertex 78.678513 -87.667603 -89.648270
vertex 32.758194 -95.168182 -136.479752
vertex 30.901272 -54.604614 -148.096527
endloop
endfacet
facet normal 0.438267 0.714285 -0.545637
outer loop
vertex 63.765064 -111.602509 -99.742645
vertex 49.860683 -113.898773 -113.916931
vertex 33.177364 -103.382050 -113.550034
endloop
endfacet
facet normal 0.443027 0.692834 -0.568954
outer loop
vertex 33.177364 -103.382050 -113.550034
vertex 56.467422 -99.508728 -90.698090
vertex 63.765064 -111.602509 -99.742645
endloop
endfacet
facet normal 0.516271 0.809209 0.280437
outer loop
vertex 49.860683 -113.898773 -113.916931
vertex 32.758194 -95.168182 -136.479752
vertex 33.177364 -103.382050 -113.550034
endloop
endfacet
facet normal 0.457930 -0.830955 -0.315933
outer loop
vertex 32.758194 -95.168182 -136.479752
vertex 78.678513 -87.667603 -89.648270
vertex 56.467422 -99.508728 -90.698090
endloop
endfacet
facet normal 0.443501 -0.841166 -0.309429
outer loop
vertex 56.467422 -99.508728 -90.698090
vertex 33.177364 -103.382050 -113.550034
vertex 32.758194 -95.168182 -136.479752
endloop
endfacet
facet normal -0.223470 0.493689 -0.840436
outer loop
vertex 78.678513 -87.667603 -89.648270
vertex 63.765064 -111.602509 -99.742645
vertex 56.467422 -99.508728 -90.698090
endloop
endfacet
facet normal 0.838384 -0.201232 -0.506574
outer loop
vertex 69.900841 53.975006 -70.625061
vertex 35.330391 -4.954819 -104.430107
vertex 25.885887 32.006805 -134.743530
endloop
endfacet
facet normal 0.838386 -0.201152 -0.506603
outer loop
vertex 25.885887 32.006805 -134.743530
vertex 34.443722 69.727448 -135.558411
vertex 69.900841 53.975006 -70.625061
endloop
endfacet
facet normal 0.593088 0.501242 -0.630082
outer loop
vertex 80.852524 -48.929321 -96.563217
vertex 30.901272 -54.604614 -148.096527
vertex 35.330391 -4.954819 -104.430107
endloop
endfacet
facet normal 0.911541 0.404914 0.071684
outer loop
vertex 73.281151 -44.433121 -25.682373
vertex 102.094261 -103.007782 -61.208241
vertex 80.852524 -48.929321 -96.563217
endloop
endfacet
facet normal 0.691978 0.721369 0.028157
outer loop
vertex 80.852524 -48.929321 -96.563217
vertex 35.330391 -4.954819 -104.430107
vertex 73.281151 -44.433121 -25.682373
endloop
endfacet
facet normal 0.494221 0.634001 -0.594800
outer loop
vertex -20.648197 -58.360626 -158.602386
vertex -78.308167 -68.692932 -217.525497
vertex -41.500153 14.869919 -97.871490
endloop
endfacet
facet normal -0.404586 0.803503 -0.436684
outer loop
vertex -78.308167 -68.692932 -217.525497
vertex -104.558357 -78.039124 -210.401917
vertex -41.500153 14.869919 -97.871490
endloop
endfacet
facet normal -0.261397 -0.494830 -0.828743
outer loop
vertex 31.339943 205.950638 -102.389648
vertex 40.253288 184.114380 -92.162971
vertex 25.534733 183.184433 -86.965279
endloop
endfacet
facet normal -0.100648 -0.057232 -0.993275
outer loop
vertex -41.500153 14.869919 -97.871490
vertex -61.405926 125.760201 -102.243942
vertex -16.795387 98.957687 -105.219955
endloop
endfacet
facet normal -0.093527 -0.059375 -0.993845
outer loop
vertex -16.795387 98.957687 -105.219955
vertex -30.950047 35.532379 -100.098740
vertex -41.500153 14.869919 -97.871490
endloop
endfacet
facet normal 0.838560 -0.202134 -0.505924
outer loop
vertex 84.275436 79.234825 -56.869198
vertex 130.025726 132.609665 -2.364061
vertex 73.281151 -44.433121 -25.682373
endloop
endfacet
facet normal 0.838804 -0.202068 -0.505545
outer loop
vertex 73.281151 -44.433121 -25.682373
vertex 35.330391 -4.954819 -104.430107
vertex 69.900841 53.975006 -70.625061
endloop
endfacet
facet normal 0.838823 -0.202056 -0.505519
outer loop
vertex 84.275436 79.234825 -56.869198
vertex 73.281151 -44.433121 -25.682373
vertex 69.900841 53.975006 -70.625061
endloop
endfacet
facet normal 0.105666 0.651383 -0.751356
outer loop
vertex 35.330391 -4.954819 -104.430107
vertex 30.901272 -54.604614 -148.096527
vertex -20.648197 -58.360626 -158.602386
endloop
endfacet
facet normal 0.104224 0.652295 -0.750765
outer loop
vertex -20.648197 -58.360626 -158.602386
vertex -41.500153 14.869919 -97.871490
vertex 35.330391 -4.954819 -104.430107
endloop
endfacet
facet normal -0.831872 0.000228 -0.554968
outer loop
vertex 43.547234 204.773743 -97.091965
vertex 51.361465 207.375641 -108.804062
vertex 40.253288 184.114380 -92.162971
endloop
endfacet
facet normal 0.361198 -0.270501 -0.892393
outer loop
vertex 31.339943 205.950638 -102.389648
vertex 43.547234 204.773743 -97.091965
vertex 40.253288 184.114380 -92.162971
endloop
endfacet
facet normal -0.256150 -0.515568 -0.817666
outer loop
vertex 25.534733 183.184433 -86.965279
vertex 14.462776 182.484589 -83.055489
vertex 11.387619 204.526428 -95.990318
endloop
endfacet
facet normal 0.355183 -0.154431 -0.921953
outer loop
vertex 11.387619 204.526428 -95.990318
vertex 23.571205 203.446060 -91.115631
vertex 25.534733 183.184433 -86.965279
endloop
endfacet
facet normal -0.786532 -0.196168 -0.585565
outer loop
vertex 25.534733 183.184433 -86.965279
vertex 23.571205 203.446060 -91.115631
vertex 31.339943 205.950638 -102.389648
endloop
endfacet
facet normal -0.265187 -0.474030 -0.839626
outer loop
vertex 51.361465 207.375641 -108.804062
vertex 51.344814 184.833862 -96.072319
vertex 40.253288 184.114380 -92.162971
endloop
endfacet
facet normal 0.604991 0.079676 -0.792236
outer loop
vertex 14.945744 95.130707 -108.214134
vertex 9.332546 125.751984 -109.421013
vertex 84.275436 79.234825 -56.869198
endloop
endfacet
facet normal 0.605619 0.086161 -0.791076
outer loop
vertex 84.275436 79.234825 -56.869198
vertex 69.900841 53.975006 -70.625061
vertex 14.945744 95.130707 -108.214134
endloop
endfacet
facet normal -0.099929 -0.058672 -0.993263
outer loop
vertex 15.672598 23.152985 -104.112740
vertex 35.330391 -4.954819 -104.430107
vertex -41.500153 14.869919 -97.871490
endloop
endfacet
facet normal -0.100353 -0.055840 -0.993384
outer loop
vertex -41.500153 14.869919 -97.871490
vertex -30.950047 35.532379 -100.098740
vertex 15.672598 23.152985 -104.112740
endloop
endfacet
facet normal -0.048786 -0.010508 -0.998754
outer loop
vertex 34.443722 69.727448 -135.558411
vertex 25.885887 32.006805 -134.743530
vertex -21.840191 45.351242 -132.552643
endloop
endfacet
facet normal -0.048880 -0.010290 -0.998752
outer loop
vertex -21.840191 45.351242 -132.552643
vertex -15.858044 73.834312 -133.138870
vertex 34.443722 69.727448 -135.558411
endloop
endfacet
facet normal -0.100639 -0.057595 -0.993254
outer loop
vertex 9.332546 125.751984 -109.421013
vertex 14.945744 95.130707 -108.214134
vertex -16.795387 98.957687 -105.219955
endloop
endfacet
facet normal -0.100781 -0.057456 -0.993248
outer loop
vertex -16.795387 98.957687 -105.219955
vertex -61.405926 125.760201 -102.243942
vertex 9.332546 125.751984 -109.421013
endloop
endfacet
facet normal -0.752558 -0.521781 -0.401748
outer loop
vertex 35.330391 -4.954819 -104.430107
vertex 15.672598 23.152985 -104.112740
vertex 25.885887 32.006805 -134.743530
endloop
endfacet
facet normal -0.268475 -0.898535 -0.347211
outer loop
vertex 15.672598 23.152985 -104.112740
vertex -30.950047 35.532379 -100.098740
vertex -21.840191 45.351242 -132.552643
endloop
endfacet
facet normal -0.267185 -0.898324 -0.348748
outer loop
vertex -21.840191 45.351242 -132.552643
vertex 25.885887 32.006805 -134.743530
vertex 15.672598 23.152985 -104.112740
endloop
endfacet
facet normal -0.957830 0.196859 -0.209306
outer loop
vertex -30.950047 35.532379 -100.098740
vertex -16.795387 98.957687 -105.219955
vertex -15.858044 73.834312 -133.138870
endloop
endfacet
facet normal -0.957830 0.196860 -0.209304
outer loop
vertex -15.858044 73.834312 -133.138870
vertex -21.840191 45.351242 -132.552643
vertex -30.950047 35.532379 -100.098740
endloop
endfacet
facet normal 0.026185 0.741622 -0.670306
outer loop
vertex -16.795387 98.957687 -105.219955
vertex 14.945744 95.130707 -108.214134
vertex 34.443722 69.727448 -135.558411
endloop
endfacet
facet normal 0.028568 0.743516 -0.668108
outer loop
vertex 34.443722 69.727448 -135.558411
vertex -15.858044 73.834312 -133.138870
vertex -16.795387 98.957687 -105.219955
endloop
endfacet
facet normal 0.668696 0.718636 -0.190807
outer loop
vertex 14.945744 95.130707 -108.214134
vertex 69.900841 53.975006 -70.625061
vertex 34.443722 69.727448 -135.558411
endloop
endfacet
facet normal 0.475163 0.180398 -0.861206
outer loop
vertex 155.538818 168.898697 64.395203
vertex 133.804443 107.774567 39.599651
vertex 107.050781 124.942062 28.434650
endloop
endfacet
facet normal 0.475163 0.180398 -0.861206
outer loop
vertex 107.050781 124.942062 28.434650
vertex 75.910362 178.224762 22.414423
vertex 155.538818 168.898697 64.395203
endloop
endfacet
facet normal 0.475163 0.180399 -0.861206
outer loop
vertex 133.804443 107.774567 39.599651
vertex 178.368011 44.637924 50.961845
vertex 107.050781 124.942062 28.434650
endloop
endfacet
facet normal 0.476739 0.178235 -0.860786
outer loop
vertex 178.368011 44.637924 50.961845
vertex 126.942116 -0.075439 13.221848
vertex 73.281151 -44.433121 -25.682373
endloop
endfacet
facet normal 0.475181 0.180419 -0.861192
outer loop
vertex 73.281151 -44.433121 -25.682373
vertex 107.050781 124.942062 28.434650
vertex 178.368011 44.637924 50.961845
endloop
endfacet
facet normal 0.475213 0.180419 -0.861175
outer loop
vertex 126.942116 -0.075439 13.221848
vertex 159.278214 -81.029907 14.105309
vertex 73.281151 -44.433121 -25.682373
endloop
endfacet
facet normal 0.837607 -0.432962 0.333105
outer loop
vertex 133.804443 107.774567 39.599651
vertex 155.538818 168.898697 64.395203
vertex 147.674164 165.489624 79.740189
endloop
endfacet
facet normal 0.837602 -0.432965 0.333113
outer loop
vertex 147.674164 165.489624 79.740189
vertex 125.936783 104.364319 54.950115
vertex 133.804443 107.774567 39.599651
endloop
endfacet
facet normal 0.677725 0.563393 0.472521
outer loop
vertex 178.368011 44.637924 50.961845
vertex 133.804443 107.774567 39.599651
vertex 125.936783 104.364319 54.950115
endloop
endfacet
facet normal 0.677728 0.563396 0.472515
outer loop
vertex 125.936783 104.364319 54.950115
vertex 170.503525 41.228912 66.306572
vertex 178.368011 44.637924 50.961845
endloop
endfacet
facet normal 0.595156 -0.793220 0.128806
outer loop
vertex 126.942116 -0.075439 13.221848
vertex 178.368011 44.637924 50.961845
vertex 170.503525 41.228912 66.306572
endloop
endfacet
facet normal 0.597818 -0.791750 0.125478
outer loop
vertex 170.503525 41.228912 66.306572
vertex 119.292175 -3.397232 28.708626
vertex 126.942116 -0.075439 13.221848
endloop
endfacet
facet normal 0.815894 0.331070 0.474036
outer loop
vertex 159.278214 -81.029907 14.105309
vertex 126.942116 -0.075439 13.221848
vertex 119.292175 -3.397232 28.708626
endloop
endfacet
facet normal 0.815898 0.331074 0.474026
outer loop
vertex 119.292175 -3.397232 28.708626
vertex 151.515381 -84.044189 29.572033
vertex 159.278214 -81.029907 14.105309
endloop
endfacet
facet normal -0.000005 0.976200 0.216873
outer loop
vertex 155.538818 168.898697 64.395203
vertex 75.910362 178.224762 22.414423
vertex 147.674164 165.489624 79.740189
endloop
endfacet
facet normal 0.327633 -0.452815 0.829225
outer loop
vertex 125.936783 104.364319 54.950115
vertex 147.674164 165.489624 79.740189
vertex 75.686821 159.854523 105.105774
endloop
endfacet
facet normal 0.327633 -0.452815 0.829225
outer loop
vertex 75.686821 159.854523 105.105774
vertex 65.151268 99.606110 76.368584
vertex 125.936783 104.364319 54.950115
endloop
endfacet
facet normal 0.284712 0.360732 0.888151
outer loop
vertex 170.503525 41.228912 66.306572
vertex 125.936783 104.364319 54.950115
vertex 65.151268 99.606110 76.368584
endloop
endfacet
facet normal 0.284712 0.360731 0.888151
outer loop
vertex 65.151268 99.606110 76.368584
vertex 88.063896 34.775589 95.355118
vertex 170.503525 41.228912 66.306572
endloop
endfacet
facet normal 0.261544 -0.779586 0.569070
outer loop
vertex 119.292175 -3.397232 28.708626
vertex 170.503525 41.228912 66.306572
vertex 88.063896 34.775589 95.355118
endloop
endfacet
facet normal 0.261013 -0.779839 0.568967
outer loop
vertex 88.063896 34.775589 95.355118
vertex 62.495880 -7.879257 48.620682
vertex 119.292175 -3.397232 28.708626
endloop
endfacet
facet normal 0.318064 0.137129 0.938100
outer loop
vertex 151.515381 -84.044189 29.572033
vertex 119.292175 -3.397232 28.708626
vertex 62.495880 -7.879257 48.620682
endloop
endfacet
facet normal 0.318287 0.137418 0.937982
outer loop
vertex 62.495880 -7.879257 48.620682
vertex 72.510246 -56.681549 52.372234
vertex 151.515381 -84.044189 29.572033
endloop
endfacet
facet normal -0.261699 -0.920707 -0.289504
outer loop
vertex 151.515381 -84.044189 29.572033
vertex 44.699673 -48.669144 13.625862
vertex 73.281151 -44.433121 -25.682373
endloop
endfacet
facet normal -0.250146 -0.919027 -0.304657
outer loop
vertex 73.281151 -44.433121 -25.682373
vertex 159.278214 -81.029907 14.105309
vertex 151.515381 -84.044189 29.572033
endloop
endfacet
facet normal 0.657263 0.452248 0.602890
outer loop
vertex 107.050781 124.942062 28.434650
vertex 130.025726 132.609665 -2.364061
vertex 75.910362 178.224762 22.414423
endloop
endfacet
facet normal 0.795440 -0.322527 0.513080
outer loop
vertex 107.050781 124.942062 28.434650
vertex 73.281151 -44.433121 -25.682373
vertex 130.025726 132.609665 -2.364061
endloop
endfacet
facet normal 0.806229 0.038398 0.590356
outer loop
vertex 73.281151 -44.433121 -25.682373
vertex 44.699673 -48.669144 13.625862
vertex 51.391041 -114.439606 8.765495
endloop
endfacet
facet normal 0.806168 0.038455 0.590435
outer loop
vertex 51.391041 -114.439606 8.765495
vertex 102.094261 -103.007782 -61.208241
vertex 73.281151 -44.433121 -25.682373
endloop
endfacet
facet normal -0.318626 -0.947313 0.032801
outer loop
vertex 151.515381 -84.044189 29.572033
vertex 72.510246 -56.681549 52.372234
vertex 44.699673 -48.669144 13.625862
endloop
endfacet
facet normal 0.000001 0.976201 0.216867
outer loop
vertex 75.910362 178.224762 22.414423
vertex 45.216114 169.254898 62.791313
vertex 75.686821 159.854523 105.105774
endloop
endfacet
facet normal -0.000000 0.976201 0.216867
outer loop
vertex 75.686821 159.854523 105.105774
vertex 147.674164 165.489624 79.740189
vertex 75.910362 178.224762 22.414423
endloop
endfacet
facet normal 0.411669 -0.884697 -0.218723
outer loop
vertex -15.481307 -179.344330 -103.101723
vertex 28.459538 -152.917328 -127.291161
vertex 77.625580 -142.282593 -77.769089
endloop
endfacet
facet normal 0.411049 -0.886014 -0.214519
outer loop
vertex 77.625580 -142.282593 -77.769089
vertex 27.325241 -174.830780 -39.720085
vertex -15.481307 -179.344330 -103.101723
endloop
endfacet
endsolid Exported from Blender-3.6.4
