solid Exported from Blender-3.6.4
facet normal 0.249176 0.947520 0.200294
outer loop
vertex -57.909458 57.880150 -52.264542
vertex -25.265099 40.623260 -11.239702
vertex 10.897695 37.475922 -41.339138
endloop
endfacet
facet normal 0.249176 0.947520 0.200294
outer loop
vertex -57.909458 57.880150 -52.264542
vertex 10.897695 37.475922 -41.339138
vertex -21.746666 54.732811 -82.363976
endloop
endfacet
facet normal 0.652352 0.727328 -0.213144
outer loop
vertex -21.746666 54.732811 -82.363976
vertex 10.897695 37.475922 -41.339138
vertex 33.247536 8.667042 -71.241699
endloop
endfacet
facet normal 0.652352 0.727328 -0.213144
outer loop
vertex -21.746666 54.732811 -82.363976
vertex 33.247536 8.667042 -71.241699
vertex 0.603175 25.923933 -112.266548
endloop
endfacet
facet normal 0.806352 0.229322 -0.545168
outer loop
vertex 0.603175 25.923933 -112.266548
vertex 33.247536 8.667042 -71.241699
vertex 33.247528 -34.799362 -89.525620
endloop
endfacet
facet normal 0.806351 0.229322 -0.545169
outer loop
vertex 0.603175 25.923933 -112.266548
vertex 33.247528 -34.799362 -89.525620
vertex 0.603170 -17.542469 -130.550461
endloop
endfacet
facet normal 0.652352 -0.356277 -0.668957
outer loop
vertex 0.603170 -17.542469 -130.550461
vertex 33.247528 -34.799362 -89.525620
vertex 10.897688 -76.320587 -89.207062
endloop
endfacet
facet normal 0.652352 -0.356277 -0.668957
outer loop
vertex 0.603170 -17.542469 -130.550461
vertex 10.897688 -76.320587 -89.207062
vertex -21.746670 -59.063702 -130.231903
endloop
endfacet
facet normal 0.249176 -0.805791 -0.537227
outer loop
vertex -21.746670 -59.063702 -130.231903
vertex 10.897688 -76.320587 -89.207062
vertex -25.265106 -100.036957 -70.407700
endloop
endfacet
facet normal 0.249177 -0.805791 -0.537227
outer loop
vertex -21.746670 -59.063702 -130.231903
vertex -25.265106 -100.036957 -70.407700
vertex -57.909466 -82.780075 -111.432541
endloop
endfacet
facet normal -0.249176 -0.947520 -0.200294
outer loop
vertex -57.909466 -82.780075 -111.432541
vertex -25.265106 -100.036957 -70.407700
vertex -61.427906 -96.889618 -40.308266
endloop
endfacet
facet normal -0.249176 -0.947520 -0.200294
outer loop
vertex -57.909466 -82.780075 -111.432541
vertex -61.427906 -96.889618 -40.308266
vertex -94.072258 -79.632729 -81.333099
endloop
endfacet
facet normal -0.652352 -0.727328 0.213144
outer loop
vertex -94.072258 -79.632729 -81.333099
vertex -61.427906 -96.889618 -40.308266
vertex -83.777725 -68.080750 -10.405718
endloop
endfacet
facet normal -0.652352 -0.727328 0.213144
outer loop
vertex -94.072258 -79.632729 -81.333099
vertex -83.777725 -68.080750 -10.405718
vertex -116.422089 -50.823860 -51.430561
endloop
endfacet
facet normal -0.806352 -0.229322 0.545168
outer loop
vertex -116.422089 -50.823860 -51.430561
vertex -83.777725 -68.080750 -10.405718
vertex -83.777725 -24.614334 7.878209
endloop
endfacet
facet normal -0.806352 -0.229322 0.545168
outer loop
vertex -116.422089 -50.823860 -51.430561
vertex -83.777725 -24.614334 7.878209
vertex -116.422089 -7.357443 -33.146633
endloop
endfacet
facet normal 0.591437 -0.312653 0.743270
outer loop
vertex 33.247536 8.667042 -71.241699
vertex 10.897695 37.475922 -41.339138
vertex -25.265099 40.623260 -11.239702
endloop
endfacet
facet normal 0.591436 -0.312653 0.743271
outer loop
vertex -25.265099 40.623260 -11.239702
vertex -61.427876 16.906918 7.559645
vertex -83.777725 -24.614334 7.878209
endloop
endfacet
facet normal 0.591437 -0.312653 0.743270
outer loop
vertex -83.777725 -24.614334 7.878209
vertex -83.777725 -68.080750 -10.405718
vertex -61.427906 -96.889618 -40.308266
endloop
endfacet
facet normal 0.591436 -0.312652 0.743271
outer loop
vertex -61.427906 -96.889618 -40.308266
vertex -25.265106 -100.036957 -70.407700
vertex 10.897688 -76.320587 -89.207062
endloop
endfacet
facet normal 0.591437 -0.312653 0.743270
outer loop
vertex 10.897688 -76.320587 -89.207062
vertex 33.247528 -34.799362 -89.525620
vertex 33.247536 8.667042 -71.241699
endloop
endfacet
facet normal 0.591437 -0.312653 0.743271
outer loop
vertex 33.247536 8.667042 -71.241699
vertex -25.265099 40.623260 -11.239702
vertex -83.777725 -24.614334 7.878209
endloop
endfacet
facet normal 0.591437 -0.312653 0.743270
outer loop
vertex -83.777725 -24.614334 7.878209
vertex -61.427906 -96.889618 -40.308266
vertex 10.897688 -76.320587 -89.207062
endloop
endfacet
facet normal 0.591436 -0.312653 0.743270
outer loop
vertex -83.777725 -24.614334 7.878209
vertex 10.897688 -76.320587 -89.207062
vertex 33.247536 8.667042 -71.241699
endloop
endfacet
facet normal -0.652352 0.356277 0.668957
outer loop
vertex -116.422089 -7.357443 -33.146633
vertex -83.777725 -24.614334 7.878209
vertex -61.427876 16.906918 7.559645
endloop
endfacet
facet normal -0.652352 0.356277 0.668957
outer loop
vertex -116.422089 -7.357443 -33.146633
vertex -61.427876 16.906918 7.559645
vertex -94.072235 34.163807 -33.465195
endloop
endfacet
facet normal -0.249176 0.805791 0.537227
outer loop
vertex -94.072235 34.163807 -33.465195
vertex -61.427876 16.906918 7.559645
vertex -25.265099 40.623260 -11.239702
endloop
endfacet
facet normal -0.249176 0.805791 0.537227
outer loop
vertex -94.072235 34.163807 -33.465195
vertex -25.265099 40.623260 -11.239702
vertex -57.909458 57.880150 -52.264542
endloop
endfacet
facet normal -0.652352 0.356277 0.668957
outer loop
vertex -9.074209 -16.700222 -122.495674
vertex -27.727617 -51.354282 -122.229790
vertex -17.333998 -56.848694 -109.167915
endloop
endfacet
facet normal -0.652352 0.356277 0.668957
outer loop
vertex -9.074209 -16.700222 -122.495674
vertex -17.333998 -56.848694 -109.167915
vertex 1.319410 -22.194633 -109.433792
endloop
endfacet
facet normal -0.591436 0.312653 -0.743270
outer loop
vertex -27.727615 43.621479 -82.278732
vertex -57.909462 46.248283 -57.157429
vertex -57.909458 57.880150 -52.264542
endloop
endfacet
facet normal -0.591436 0.312653 -0.743271
outer loop
vertex -27.727615 43.621479 -82.278732
vertex -57.909458 57.880150 -52.264542
vertex -21.746666 54.732811 -82.363976
endloop
endfacet
facet normal -0.591436 0.312653 -0.743271
outer loop
vertex -9.074204 19.577291 -107.235718
vertex -27.727615 43.621479 -82.278732
vertex -21.746666 54.732811 -82.363976
endloop
endfacet
facet normal -0.591437 0.312653 -0.743270
outer loop
vertex -9.074204 19.577291 -107.235718
vertex -21.746666 54.732811 -82.363976
vertex 0.603175 25.923933 -112.266548
endloop
endfacet
facet normal -0.591438 0.312653 -0.743270
outer loop
vertex -9.074209 -16.700222 -122.495674
vertex -9.074204 19.577291 -107.235718
vertex 0.603175 25.923933 -112.266548
endloop
endfacet
facet normal -0.591437 0.312653 -0.743270
outer loop
vertex -9.074209 -16.700222 -122.495674
vertex 0.603175 25.923933 -112.266548
vertex 0.603170 -17.542469 -130.550461
endloop
endfacet
facet normal -0.591435 0.312653 -0.743272
outer loop
vertex -27.727617 -51.354282 -122.229790
vertex -9.074209 -16.700222 -122.495674
vertex 0.603170 -17.542469 -130.550461
endloop
endfacet
facet normal -0.591438 0.312653 -0.743270
outer loop
vertex -27.727617 -51.354282 -122.229790
vertex 0.603170 -17.542469 -130.550461
vertex -21.746670 -59.063702 -130.231903
endloop
endfacet
facet normal -0.591437 0.312654 -0.743270
outer loop
vertex -57.909462 -71.148209 -106.539658
vertex -27.727617 -51.354282 -122.229790
vertex -21.746670 -59.063702 -130.231903
endloop
endfacet
facet normal -0.591436 0.312653 -0.743271
outer loop
vertex -57.909462 -71.148209 -106.539658
vertex -21.746670 -59.063702 -130.231903
vertex -57.909466 -82.780075 -111.432541
endloop
endfacet
facet normal -0.591436 0.312654 -0.743270
outer loop
vertex -88.091309 -68.521400 -81.418350
vertex -57.909462 -71.148209 -106.539658
vertex -57.909466 -82.780075 -111.432541
endloop
endfacet
facet normal -0.591437 0.312652 -0.743271
outer loop
vertex -88.091309 -68.521400 -81.418350
vertex -57.909466 -82.780075 -111.432541
vertex -94.072258 -79.632729 -81.333099
endloop
endfacet
facet normal -0.591436 0.312653 -0.743271
outer loop
vertex -106.744705 -44.477219 -56.461380
vertex -88.091309 -68.521400 -81.418350
vertex -94.072258 -79.632729 -81.333099
endloop
endfacet
facet normal -0.591437 0.312653 -0.743270
outer loop
vertex -106.744705 -44.477219 -56.461380
vertex -94.072258 -79.632729 -81.333099
vertex -116.422089 -50.823860 -51.430561
endloop
endfacet
facet normal -0.591436 0.312653 -0.743271
outer loop
vertex -106.744705 -8.199692 -41.201424
vertex -106.744705 -44.477219 -56.461380
vertex -116.422089 -50.823860 -51.430561
endloop
endfacet
facet normal -0.591437 0.312653 -0.743270
outer loop
vertex -106.744705 -8.199692 -41.201424
vertex -116.422089 -50.823860 -51.430561
vertex -116.422089 -7.357443 -33.146633
endloop
endfacet
facet normal -0.591437 0.312653 -0.743270
outer loop
vertex -88.091286 26.454380 -41.467300
vertex -106.744705 -8.199692 -41.201424
vertex -116.422089 -7.357443 -33.146633
endloop
endfacet
facet normal -0.591436 0.312653 -0.743271
outer loop
vertex -88.091286 26.454380 -41.467300
vertex -116.422089 -7.357443 -33.146633
vertex -94.072235 34.163807 -33.465195
endloop
endfacet
facet normal -0.591436 0.312654 -0.743270
outer loop
vertex -57.909462 46.248283 -57.157429
vertex -88.091286 26.454380 -41.467300
vertex -94.072235 34.163807 -33.465195
endloop
endfacet
facet normal -0.591437 0.312653 -0.743270
outer loop
vertex -57.909462 46.248283 -57.157429
vertex -94.072235 34.163807 -33.465195
vertex -57.909458 57.880150 -52.264542
endloop
endfacet
facet normal -0.249177 0.805791 0.537226
outer loop
vertex -25.068783 -46.878571 -98.819313
vertex -47.515846 -61.599865 -87.150131
vertex -38.642273 -66.290726 -75.998520
endloop
endfacet
facet normal -0.249177 0.805791 0.537227
outer loop
vertex -25.068783 -46.878571 -98.819313
vertex -38.642273 -66.290726 -75.998520
vertex -16.195210 -51.569435 -87.667709
endloop
endfacet
facet normal -0.249176 -0.947520 -0.200295
outer loop
vertex -57.909462 46.248283 -57.157429
vertex -27.727615 43.621479 -82.278732
vertex -17.334000 38.127071 -69.216858
endloop
endfacet
facet normal -0.249176 -0.947520 -0.200294
outer loop
vertex -57.909462 46.248283 -57.157429
vertex -17.334000 38.127071 -69.216858
vertex -47.515846 40.753876 -44.095554
endloop
endfacet
facet normal 0.806352 0.229322 -0.545168
outer loop
vertex -106.744705 -44.477219 -56.461380
vertex -106.744705 -8.199692 -41.201424
vertex -96.351089 -13.694103 -28.139545
endloop
endfacet
facet normal 0.806352 0.229322 -0.545168
outer loop
vertex -106.744705 -44.477219 -56.461380
vertex -96.351089 -13.694103 -28.139545
vertex -96.351089 -49.971626 -43.399506
endloop
endfacet
facet normal -0.249176 0.805791 0.537227
outer loop
vertex -27.727617 -51.354282 -122.229790
vertex -57.909462 -71.148209 -106.539658
vertex -47.515842 -76.642624 -93.477783
endloop
endfacet
facet normal -0.249178 0.805790 0.537227
outer loop
vertex -27.727617 -51.354282 -122.229790
vertex -47.515842 -76.642624 -93.477783
vertex -17.333998 -56.848694 -109.167915
endloop
endfacet
facet normal -0.652352 -0.727328 0.213144
outer loop
vertex -27.727615 43.621479 -82.278732
vertex -9.074204 19.577291 -107.235718
vertex 1.319415 14.082880 -94.173843
endloop
endfacet
facet normal -0.652352 -0.727328 0.213144
outer loop
vertex -27.727615 43.621479 -82.278732
vertex 1.319415 14.082880 -94.173843
vertex -17.334000 38.127071 -69.216858
endloop
endfacet
facet normal 0.652352 -0.356277 -0.668957
outer loop
vertex -106.744705 -8.199692 -41.201424
vertex -88.091286 26.454380 -41.467300
vertex -77.697670 20.959970 -28.405424
endloop
endfacet
facet normal 0.652352 -0.356277 -0.668957
outer loop
vertex -106.744705 -8.199692 -41.201424
vertex -77.697670 20.959970 -28.405424
vertex -96.351089 -13.694103 -28.139545
endloop
endfacet
facet normal 0.249176 0.947520 0.200294
outer loop
vertex -57.909462 -71.148209 -106.539658
vertex -88.091309 -68.521400 -81.418350
vertex -77.697693 -74.015816 -68.356476
endloop
endfacet
facet normal 0.249177 0.947519 0.200295
outer loop
vertex -57.909462 -71.148209 -106.539658
vertex -77.697693 -74.015816 -68.356476
vertex -47.515842 -76.642624 -93.477783
endloop
endfacet
facet normal -0.806351 -0.229323 0.545169
outer loop
vertex -9.074204 19.577291 -107.235718
vertex -9.074209 -16.700222 -122.495674
vertex 1.319410 -22.194633 -109.433792
endloop
endfacet
facet normal -0.806352 -0.229322 0.545168
outer loop
vertex -9.074204 19.577291 -107.235718
vertex 1.319410 -22.194633 -109.433792
vertex 1.319415 14.082880 -94.173843
endloop
endfacet
facet normal 0.249176 -0.805791 -0.537227
outer loop
vertex -88.091286 26.454380 -41.467300
vertex -57.909462 46.248283 -57.157429
vertex -47.515846 40.753876 -44.095554
endloop
endfacet
facet normal 0.249176 -0.805791 -0.537226
outer loop
vertex -88.091286 26.454380 -41.467300
vertex -47.515846 40.753876 -44.095554
vertex -77.697670 20.959970 -28.405424
endloop
endfacet
facet normal 0.652352 0.727328 -0.213144
outer loop
vertex -88.091309 -68.521400 -81.418350
vertex -106.744705 -44.477219 -56.461380
vertex -96.351089 -49.971626 -43.399506
endloop
endfacet
facet normal 0.652352 0.727328 -0.213144
outer loop
vertex -88.091309 -68.521400 -81.418350
vertex -96.351089 -49.971626 -43.399506
vertex -77.697693 -74.015816 -68.356476
endloop
endfacet
facet normal -0.591437 0.312652 -0.743271
outer loop
vertex -25.068777 23.757496 -69.106613
vertex -47.515842 25.711123 -50.423206
vertex -47.515846 40.753876 -44.095554
endloop
endfacet
facet normal -0.591437 0.312653 -0.743271
outer loop
vertex -25.068777 23.757496 -69.106613
vertex -47.515846 40.753876 -44.095554
vertex -17.334000 38.127071 -69.216858
endloop
endfacet
facet normal -0.591437 0.312653 -0.743270
outer loop
vertex -11.195729 5.875172 -87.667809
vertex -25.068777 23.757496 -69.106613
vertex -17.334000 38.127071 -69.216858
endloop
endfacet
facet normal -0.591436 0.312653 -0.743271
outer loop
vertex -11.195729 5.875172 -87.667809
vertex -17.334000 38.127071 -69.216858
vertex 1.319415 14.082880 -94.173843
endloop
endfacet
facet normal -0.591437 0.312653 -0.743270
outer loop
vertex -11.195734 -21.105404 -99.017044
vertex -11.195729 5.875172 -87.667809
vertex 1.319415 14.082880 -94.173843
endloop
endfacet
facet normal -0.591436 0.312653 -0.743271
outer loop
vertex -11.195734 -21.105404 -99.017044
vertex 1.319415 14.082880 -94.173843
vertex 1.319410 -22.194633 -109.433792
endloop
endfacet
facet normal -0.591436 0.312653 -0.743271
outer loop
vertex -25.068783 -46.878571 -98.819313
vertex -11.195734 -21.105404 -99.017044
vertex 1.319410 -22.194633 -109.433792
endloop
endfacet
facet normal -0.591436 0.312652 -0.743271
outer loop
vertex -25.068783 -46.878571 -98.819313
vertex 1.319410 -22.194633 -109.433792
vertex -17.333998 -56.848694 -109.167915
endloop
endfacet
facet normal -0.591436 0.312652 -0.743271
outer loop
vertex -47.515846 -61.599865 -87.150131
vertex -25.068783 -46.878571 -98.819313
vertex -17.333998 -56.848694 -109.167915
endloop
endfacet
facet normal -0.591436 0.312653 -0.743271
outer loop
vertex -47.515846 -61.599865 -87.150131
vertex -17.333998 -56.848694 -109.167915
vertex -47.515842 -76.642624 -93.477783
endloop
endfacet
facet normal -0.591437 0.312653 -0.743271
outer loop
vertex -69.962914 -59.646233 -68.466721
vertex -47.515846 -61.599865 -87.150131
vertex -47.515842 -76.642624 -93.477783
endloop
endfacet
facet normal -0.591436 0.312652 -0.743271
outer loop
vertex -69.962914 -59.646233 -68.466721
vertex -47.515842 -76.642624 -93.477783
vertex -77.697693 -74.015816 -68.356476
endloop
endfacet
facet normal -0.591436 0.312653 -0.743271
outer loop
vertex -83.835953 -41.763924 -49.905540
vertex -69.962914 -59.646233 -68.466721
vertex -77.697693 -74.015816 -68.356476
endloop
endfacet
facet normal -0.591436 0.312653 -0.743270
outer loop
vertex -83.835953 -41.763924 -49.905540
vertex -77.697693 -74.015816 -68.356476
vertex -96.351089 -49.971626 -43.399506
endloop
endfacet
facet normal -0.591437 0.312653 -0.743270
outer loop
vertex -83.835953 -14.783331 -38.556293
vertex -83.835953 -41.763924 -49.905540
vertex -96.351089 -49.971626 -43.399506
endloop
endfacet
facet normal -0.591436 0.312653 -0.743270
outer loop
vertex -83.835953 -14.783331 -38.556293
vertex -96.351089 -49.971626 -43.399506
vertex -96.351089 -13.694103 -28.139545
endloop
endfacet
facet normal -0.591436 0.312653 -0.743271
outer loop
vertex -69.962891 10.989852 -38.754028
vertex -83.835953 -14.783331 -38.556293
vertex -96.351089 -13.694103 -28.139545
endloop
endfacet
facet normal -0.591436 0.312653 -0.743271
outer loop
vertex -69.962891 10.989852 -38.754028
vertex -96.351089 -13.694103 -28.139545
vertex -77.697670 20.959970 -28.405424
endloop
endfacet
facet normal -0.591436 0.312652 -0.743271
outer loop
vertex -47.515842 25.711123 -50.423206
vertex -69.962891 10.989852 -38.754028
vertex -77.697670 20.959970 -28.405424
endloop
endfacet
facet normal -0.591436 0.312653 -0.743271
outer loop
vertex -47.515842 25.711123 -50.423206
vertex -77.697670 20.959970 -28.405424
vertex -47.515846 40.753876 -44.095554
endloop
endfacet
facet normal -0.591436 0.312653 -0.743270
outer loop
vertex -61.089317 6.298987 -27.602427
vertex -38.642269 21.020258 -39.271603
vertex -16.195204 19.066631 -57.955006
endloop
endfacet
facet normal -0.591437 0.312653 -0.743270
outer loop
vertex -16.195204 19.066631 -57.955006
vertex -2.322156 1.184307 -76.516205
vertex -2.322161 -25.796268 -87.865448
endloop
endfacet
facet normal -0.591437 0.312653 -0.743271
outer loop
vertex -2.322161 -25.796268 -87.865448
vertex -16.195210 -51.569435 -87.667709
vertex -38.642273 -66.290726 -75.998520
endloop
endfacet
facet normal -0.591437 0.312653 -0.743270
outer loop
vertex -38.642273 -66.290726 -75.998520
vertex -61.089344 -64.337097 -57.315117
vertex -74.962372 -46.454788 -38.753937
endloop
endfacet
facet normal -0.591436 0.312653 -0.743271
outer loop
vertex -74.962372 -46.454788 -38.753937
vertex -74.962372 -19.474195 -27.404690
vertex -61.089317 6.298987 -27.602427
endloop
endfacet
facet normal -0.591436 0.312653 -0.743270
outer loop
vertex -61.089317 6.298987 -27.602427
vertex -16.195204 19.066631 -57.955006
vertex -2.322161 -25.796268 -87.865448
endloop
endfacet
facet normal -0.591437 0.312653 -0.743270
outer loop
vertex -2.322161 -25.796268 -87.865448
vertex -38.642273 -66.290726 -75.998520
vertex -74.962372 -46.454788 -38.753937
endloop
endfacet
facet normal -0.591437 0.312653 -0.743270
outer loop
vertex -2.322161 -25.796268 -87.865448
vertex -74.962372 -46.454788 -38.753937
vertex -61.089317 6.298987 -27.602427
endloop
endfacet
facet normal -0.652352 -0.727328 0.213144
outer loop
vertex -25.068777 23.757496 -69.106613
vertex -11.195729 5.875172 -87.667809
vertex -2.322156 1.184307 -76.516205
endloop
endfacet
facet normal -0.652352 -0.727328 0.213144
outer loop
vertex -25.068777 23.757496 -69.106613
vertex -2.322156 1.184307 -76.516205
vertex -16.195204 19.066631 -57.955006
endloop
endfacet
facet normal 0.652352 -0.356277 -0.668957
outer loop
vertex -83.835953 -14.783331 -38.556293
vertex -69.962891 10.989852 -38.754028
vertex -61.089317 6.298987 -27.602427
endloop
endfacet
facet normal 0.652352 -0.356277 -0.668957
outer loop
vertex -83.835953 -14.783331 -38.556293
vertex -61.089317 6.298987 -27.602427
vertex -74.962372 -19.474195 -27.404690
endloop
endfacet
facet normal 0.249177 0.947519 0.200295
outer loop
vertex -47.515846 -61.599865 -87.150131
vertex -69.962914 -59.646233 -68.466721
vertex -61.089344 -64.337097 -57.315117
endloop
endfacet
facet normal 0.249176 0.947520 0.200293
outer loop
vertex -47.515846 -61.599865 -87.150131
vertex -61.089344 -64.337097 -57.315117
vertex -38.642273 -66.290726 -75.998520
endloop
endfacet
facet normal -0.806351 -0.229322 0.545169
outer loop
vertex -11.195729 5.875172 -87.667809
vertex -11.195734 -21.105404 -99.017044
vertex -2.322161 -25.796268 -87.865448
endloop
endfacet
facet normal -0.806351 -0.229322 0.545169
outer loop
vertex -11.195729 5.875172 -87.667809
vertex -2.322161 -25.796268 -87.865448
vertex -2.322156 1.184307 -76.516205
endloop
endfacet
facet normal 0.249176 -0.805791 -0.537227
outer loop
vertex -69.962891 10.989852 -38.754028
vertex -47.515842 25.711123 -50.423206
vertex -38.642269 21.020258 -39.271603
endloop
endfacet
facet normal 0.249176 -0.805791 -0.537227
outer loop
vertex -69.962891 10.989852 -38.754028
vertex -38.642269 21.020258 -39.271603
vertex -61.089317 6.298987 -27.602427
endloop
endfacet
facet normal 0.652352 0.727328 -0.213144
outer loop
vertex -69.962914 -59.646233 -68.466721
vertex -83.835953 -41.763924 -49.905540
vertex -74.962372 -46.454788 -38.753937
endloop
endfacet
facet normal 0.652352 0.727328 -0.213144
outer loop
vertex -69.962914 -59.646233 -68.466721
vertex -74.962372 -46.454788 -38.753937
vertex -61.089344 -64.337097 -57.315117
endloop
endfacet
facet normal -0.652353 0.356277 0.668956
outer loop
vertex -11.195734 -21.105404 -99.017044
vertex -25.068783 -46.878571 -98.819313
vertex -16.195210 -51.569435 -87.667709
endloop
endfacet
facet normal -0.652351 0.356277 0.668958
outer loop
vertex -11.195734 -21.105404 -99.017044
vertex -16.195210 -51.569435 -87.667709
vertex -2.322161 -25.796268 -87.865448
endloop
endfacet
facet normal -0.249176 -0.947520 -0.200294
outer loop
vertex -47.515842 25.711123 -50.423206
vertex -25.068777 23.757496 -69.106613
vertex -16.195204 19.066631 -57.955006
endloop
endfacet
facet normal -0.249176 -0.947520 -0.200294
outer loop
vertex -47.515842 25.711123 -50.423206
vertex -16.195204 19.066631 -57.955006
vertex -38.642269 21.020258 -39.271603
endloop
endfacet
facet normal 0.806352 0.229322 -0.545168
outer loop
vertex -83.835953 -41.763924 -49.905540
vertex -83.835953 -14.783331 -38.556293
vertex -74.962372 -19.474195 -27.404690
endloop
endfacet
facet normal 0.806351 0.229322 -0.545169
outer loop
vertex -83.835953 -41.763924 -49.905540
vertex -74.962372 -19.474195 -27.404690
vertex -74.962372 -46.454788 -38.753937
endloop
endfacet
facet normal 0.275789 0.944613 0.177896
outer loop
vertex -125.586586 9.748189 39.331604
vertex -106.602905 -0.287212 63.188782
vertex -92.145187 -2.190899 50.883682
endloop
endfacet
facet normal 0.275788 0.944613 0.177896
outer loop
vertex -125.586586 9.748189 39.331604
vertex -92.145187 -2.190899 50.883682
vertex -111.128868 7.844502 27.026503
endloop
endfacet
facet normal 0.698321 0.659483 -0.278261
outer loop
vertex -111.128868 7.844502 27.026503
vertex -92.145187 -2.190899 50.883682
vertex -84.452393 -15.234608 39.275585
endloop
endfacet
facet normal 0.698320 0.659484 -0.278261
outer loop
vertex -111.128868 7.844502 27.026503
vertex -84.452393 -15.234608 39.275585
vertex -103.436073 -5.199210 15.418411
endloop
endfacet
facet normal 0.794101 0.065774 -0.604216
outer loop
vertex -103.436073 -5.199210 15.418411
vertex -84.452393 -15.234608 39.275585
vertex -87.124077 -33.315041 33.796059
endloop
endfacet
facet normal 0.794101 0.065774 -0.604216
outer loop
vertex -103.436073 -5.199210 15.418411
vertex -87.124077 -33.315041 33.796059
vertex -106.107758 -23.279640 9.938885
endloop
endfacet
facet normal 0.518313 -0.558711 -0.647452
outer loop
vertex -106.107758 -23.279640 9.938885
vertex -87.124077 -33.315041 33.796059
vertex -98.910110 -47.972160 37.009026
endloop
endfacet
facet normal 0.518313 -0.558710 -0.647452
outer loop
vertex -106.107758 -23.279640 9.938885
vertex -98.910110 -47.972160 37.009026
vertex -117.893791 -37.936760 13.151850
endloop
endfacet
facet normal 0.000000 -0.921770 -0.387738
outer loop
vertex -117.893791 -37.936760 13.151850
vertex -98.910110 -47.972160 37.009026
vertex -114.295700 -52.347744 47.411110
endloop
endfacet
facet normal -0.000000 -0.921770 -0.387738
outer loop
vertex -117.893791 -37.936760 13.151850
vertex -114.295700 -52.347744 47.411110
vertex -133.279373 -42.312344 23.553936
endloop
endfacet
facet normal -0.518313 -0.853522 0.053403
outer loop
vertex -133.279373 -42.312344 23.553936
vertex -114.295700 -52.347744 47.411110
vertex -126.081734 -44.394394 60.135044
endloop
endfacet
facet normal -0.518313 -0.853522 0.053404
outer loop
vertex -133.279373 -42.312344 23.553936
vertex -126.081734 -44.394394 60.135044
vertex -145.065414 -34.358997 36.277870
endloop
endfacet
facet normal -0.794101 -0.385904 0.469556
outer loop
vertex -145.065414 -34.358997 36.277870
vertex -126.081734 -44.394394 60.135044
vertex -128.753418 -27.833591 69.227180
endloop
endfacet
facet normal -0.794102 -0.385901 0.469556
outer loop
vertex -145.065414 -34.358997 36.277870
vertex -128.753418 -27.833591 69.227180
vertex -147.737091 -17.798191 45.370003
endloop
endfacet
facet normal 0.591437 -0.312652 0.743271
outer loop
vertex -84.452393 -15.234608 39.275585
vertex -92.145187 -2.190899 50.883682
vertex -106.602905 -0.287212 63.188782
endloop
endfacet
facet normal 0.591437 -0.312653 0.743270
outer loop
vertex -106.602905 -0.287212 63.188782
vertex -121.060623 -10.414303 70.433189
vertex -128.753418 -27.833591 69.227180
endloop
endfacet
facet normal 0.591436 -0.312654 0.743270
outer loop
vertex -128.753418 -27.833591 69.227180
vertex -126.081734 -44.394394 60.135044
vertex -114.295700 -52.347744 47.411110
endloop
endfacet
facet normal 0.591437 -0.312653 0.743270
outer loop
vertex -114.295700 -52.347744 47.411110
vertex -98.910110 -47.972160 37.009026
vertex -87.124077 -33.315041 33.796059
endloop
endfacet
facet normal 0.591437 -0.312653 0.743270
outer loop
vertex -87.124077 -33.315041 33.796059
vertex -84.452393 -15.234608 39.275585
vertex -106.602905 -0.287212 63.188782
endloop
endfacet
facet normal 0.591436 -0.312653 0.743271
outer loop
vertex -106.602905 -0.287212 63.188782
vertex -128.753418 -27.833591 69.227180
vertex -114.295700 -52.347744 47.411110
endloop
endfacet
facet normal 0.591437 -0.312653 0.743270
outer loop
vertex -106.602905 -0.287212 63.188782
vertex -114.295700 -52.347744 47.411110
vertex -87.124077 -33.315041 33.796059
endloop
endfacet
facet normal -0.698321 0.262286 0.665999
outer loop
vertex -147.737091 -17.798191 45.370003
vertex -128.753418 -27.833591 69.227180
vertex -121.060623 -10.414303 70.433189
endloop
endfacet
facet normal -0.698321 0.262287 0.665998
outer loop
vertex -147.737091 -17.798191 45.370003
vertex -121.060623 -10.414303 70.433189
vertex -140.044312 -0.378901 46.576008
endloop
endfacet
facet normal -0.275789 0.787747 0.550813
outer loop
vertex -140.044312 -0.378901 46.576008
vertex -121.060623 -10.414303 70.433189
vertex -106.602905 -0.287212 63.188782
endloop
endfacet
facet normal -0.275789 0.787747 0.550813
outer loop
vertex -140.044312 -0.378901 46.576008
vertex -106.602905 -0.287212 63.188782
vertex -125.586586 9.748189 39.331604
endloop
endfacet
facet normal -0.591436 0.312655 -0.743270
outer loop
vertex -140.044312 -0.378901 46.576008
vertex -125.586586 9.748189 39.331604
vertex -111.128868 7.844502 27.026503
endloop
endfacet
facet normal -0.591436 0.312654 -0.743271
outer loop
vertex -111.128868 7.844502 27.026503
vertex -103.436073 -5.199210 15.418411
vertex -106.107758 -23.279640 9.938885
endloop
endfacet
facet normal -0.591437 0.312653 -0.743270
outer loop
vertex -106.107758 -23.279640 9.938885
vertex -117.893791 -37.936760 13.151850
vertex -133.279373 -42.312344 23.553936
endloop
endfacet
facet normal -0.591437 0.312651 -0.743271
outer loop
vertex -133.279373 -42.312344 23.553936
vertex -145.065414 -34.358997 36.277870
vertex -147.737091 -17.798191 45.370003
endloop
endfacet
facet normal -0.591436 0.312652 -0.743271
outer loop
vertex -147.737091 -17.798191 45.370003
vertex -140.044312 -0.378901 46.576008
vertex -111.128868 7.844502 27.026503
endloop
endfacet
facet normal -0.591437 0.312653 -0.743270
outer loop
vertex -111.128868 7.844502 27.026503
vertex -106.107758 -23.279640 9.938885
vertex -133.279373 -42.312344 23.553936
endloop
endfacet
facet normal -0.591436 0.312653 -0.743270
outer loop
vertex -111.128868 7.844502 27.026503
vertex -133.279373 -42.312344 23.553936
vertex -147.737091 -17.798191 45.370003
endloop
endfacet
facet normal -0.591436 0.312653 -0.743270
outer loop
vertex -163.985046 18.509909 91.014961
vertex 114.283577 97.648071 -97.120369
vertex 114.283577 -41.154388 -155.506927
endloop
endfacet
facet normal -0.591436 0.312653 -0.743271
outer loop
vertex 114.283577 -41.154388 -155.506927
vertex 89.504173 -70.935303 -148.316605
vertex -139.852844 -136.163269 6.749958
endloop
endfacet
facet normal -0.591437 0.312653 -0.743271
outer loop
vertex -139.852844 -136.163269 6.749958
vertex -163.985046 -120.886314 32.378647
vertex -163.985046 18.509909 91.014961
endloop
endfacet
facet normal -0.591437 0.312653 -0.743270
outer loop
vertex 114.283577 -41.154388 -155.506927
vertex -139.852844 -136.163269 6.749958
vertex -163.985046 18.509909 91.014961
endloop
endfacet
facet normal -0.806352 -0.229322 0.545168
outer loop
vertex -158.270065 7.938499 108.541183
vertex -158.270065 -137.415771 47.398640
vertex -112.803345 -161.451004 104.537613
endloop
endfacet
facet normal -0.806351 -0.229323 0.545169
outer loop
vertex -112.803337 6.049618 174.995895
vertex -112.803329 81.671265 206.805756
vertex -158.270065 105.706482 149.666794
endloop
endfacet
facet normal -0.806352 -0.229322 0.545168
outer loop
vertex -158.270065 7.938499 108.541183
vertex -112.803345 -161.451004 104.537613
vertex -112.803337 6.049618 174.995895
endloop
endfacet
facet normal -0.806352 -0.229322 0.545168
outer loop
vertex -112.803337 6.049618 174.995895
vertex -158.270065 105.706482 149.666794
vertex -158.270065 30.084839 117.856926
endloop
endfacet
facet normal -0.806352 -0.229322 0.545168
outer loop
vertex -158.270065 30.084839 117.856926
vertex -158.270065 7.938499 108.541183
vertex -112.803337 6.049618 174.995895
endloop
endfacet
facet normal 0.000000 0.921770 0.387738
outer loop
vertex 114.500122 183.280930 -34.751095
vertex 131.892227 188.227158 -46.509777
vertex 115.041527 197.134995 -67.686401
endloop
endfacet
facet normal 0.000000 0.921770 0.387737
outer loop
vertex 114.500122 183.280930 -34.751095
vertex 115.041527 197.134995 -67.686401
vertex 97.649414 192.188766 -55.927715
endloop
endfacet
facet normal 0.704219 -0.092446 -0.703939
outer loop
vertex 115.041519 121.513351 -99.496262
vertex 114.283577 97.648071 -97.120369
vertex 30.443523 170.357574 -190.542267
endloop
endfacet
facet normal 0.565965 -0.381783 -0.730702
outer loop
vertex 115.041519 121.513351 -99.496262
vertex 30.443523 170.357574 -190.542267
vertex 30.961452 184.322571 -197.437653
endloop
endfacet
facet normal 0.547816 0.324381 -0.771152
outer loop
vertex 131.892227 112.605515 -78.319641
vertex 131.892227 90.459167 -87.635391
vertex 114.283577 97.648071 -97.120369
endloop
endfacet
facet normal 0.761056 -0.088150 -0.642669
outer loop
vertex 131.892227 112.605515 -78.319641
vertex 114.283577 97.648071 -97.120369
vertex 115.041519 121.513351 -99.496262
endloop
endfacet
facet normal -0.125567 -0.834377 -0.536701
outer loop
vertex 114.283577 97.648071 -97.120369
vertex -163.985046 18.509909 91.014961
vertex -247.825104 91.219406 -2.406937
endloop
endfacet
facet normal -0.125567 -0.834377 -0.536701
outer loop
vertex 114.283577 97.648071 -97.120369
vertex -247.825104 91.219406 -2.406937
vertex 30.443523 170.357574 -190.542267
endloop
endfacet
facet normal 0.000000 0.921770 0.387737
outer loop
vertex 97.649414 192.188766 -55.927715
vertex 115.041527 197.134995 -67.686401
vertex 30.961454 241.582504 -173.351562
endloop
endfacet
facet normal 0.000000 0.921770 0.387738
outer loop
vertex 97.649414 192.188766 -55.927715
vertex 30.961454 241.582504 -173.351562
vertex 13.569342 236.636276 -161.592880
endloop
endfacet
facet normal -0.504709 -0.862416 0.038837
outer loop
vertex -133.106445 -153.345688 20.674553
vertex -87.639717 -177.380905 77.813530
vertex -112.803345 -161.451004 104.537613
endloop
endfacet
facet normal -0.504709 -0.862415 0.038838
outer loop
vertex -133.106445 -153.345688 20.674553
vertex -112.803345 -161.451004 104.537613
vertex -158.270065 -137.415771 47.398640
endloop
endfacet
facet normal -0.276796 -0.668267 -0.690509
outer loop
vertex 106.053719 -85.329758 -141.019836
vertex -133.106445 -153.345688 20.674553
vertex -139.852844 -136.163269 6.749958
endloop
endfacet
facet normal -0.276797 -0.668267 -0.690509
outer loop
vertex 106.053719 -85.329758 -141.019836
vertex -139.852844 -136.163269 6.749958
vertex 89.504173 -70.935303 -148.316605
endloop
endfacet
facet normal 0.125326 -0.330163 -0.935567
outer loop
vertex 106.053719 -85.329758 -141.019836
vertex 89.504173 -70.935303 -148.316605
vertex 114.283577 -41.154388 -155.506927
endloop
endfacet
facet normal 0.125327 -0.330163 -0.935567
outer loop
vertex 106.053719 -85.329758 -141.019836
vertex 114.283577 -41.154388 -155.506927
vertex 131.892227 -54.275967 -148.517487
endloop
endfacet
facet normal 0.547816 0.324381 -0.771152
outer loop
vertex 131.892227 90.459167 -87.635391
vertex 131.892227 -54.275967 -148.517487
vertex 114.283577 -41.154388 -155.506927
endloop
endfacet
facet normal 0.547816 0.324381 -0.771151
outer loop
vertex 131.892227 90.459167 -87.635391
vertex 114.283577 -41.154388 -155.506927
vertex 114.283577 97.648071 -97.120369
endloop
endfacet
facet normal -0.806352 -0.229318 0.545170
outer loop
vertex -259.200836 101.801910 -1.261093
vertex -175.120773 38.992680 96.680298
vertex -158.270065 30.084839 117.856926
endloop
endfacet
facet normal -0.806351 -0.229322 0.545168
outer loop
vertex -158.270065 30.084839 117.856926
vertex -158.270065 105.706482 149.666794
vertex -175.120773 114.614319 128.490158
endloop
endfacet
facet normal -0.806352 -0.229322 0.545168
outer loop
vertex -175.120773 114.614319 128.490158
vertex -259.200836 159.061829 22.825008
vertex -259.200836 101.801910 -1.261093
endloop
endfacet
facet normal -0.806352 -0.229322 0.545168
outer loop
vertex -158.270065 30.084839 117.856926
vertex -175.120773 114.614319 128.490158
vertex -259.200836 101.801910 -1.261093
endloop
endfacet
facet normal 0.504708 -0.575343 -0.643623
outer loop
vertex 151.520447 -109.364975 -83.880875
vertex 106.053719 -85.329758 -141.019836
vertex 131.892227 -54.275967 -148.517487
endloop
endfacet
facet normal 0.504709 -0.575343 -0.643623
outer loop
vertex 151.520447 -109.364975 -83.880875
vertex 131.892227 -54.275967 -148.517487
vertex 177.358948 -78.311188 -91.378510
endloop
endfacet
facet normal 0.000000 -0.921770 -0.387738
outer loop
vertex 151.520447 -109.364975 -83.880875
vertex -87.639717 -177.380905 77.813530
vertex -133.106445 -153.345688 20.674553
endloop
endfacet
facet normal 0.000000 -0.921770 -0.387738
outer loop
vertex 151.520447 -109.364975 -83.880875
vertex -133.106445 -153.345688 20.674553
vertex 106.053719 -85.329758 -141.019836
endloop
endfacet
facet normal -0.738237 -0.575286 -0.352209
outer loop
vertex -139.852844 -136.163269 6.749958
vertex -133.106445 -153.345688 20.674553
vertex -158.270065 -137.415771 47.398640
endloop
endfacet
facet normal -0.738237 -0.575287 -0.352208
outer loop
vertex -139.852844 -136.163269 6.749958
vertex -158.270065 -137.415771 47.398640
vertex -163.985046 -120.886314 32.378647
endloop
endfacet
facet normal -0.878717 -0.477341 -0.001388
outer loop
vertex -175.120773 38.992680 96.680298
vertex -163.985046 18.509909 91.014961
vertex -158.270065 7.938499 108.541183
endloop
endfacet
facet normal -0.806351 -0.229322 0.545168
outer loop
vertex -175.120773 38.992680 96.680298
vertex -158.270065 7.938499 108.541183
vertex -158.270065 30.084839 117.856926
endloop
endfacet
facet normal 0.000000 0.921770 0.387738
outer loop
vertex 159.966843 159.245697 22.387878
vertex 177.358948 164.191925 10.629196
vertex 131.892227 188.227158 -46.509777
endloop
endfacet
facet normal 0.000000 0.921770 0.387738
outer loop
vertex 159.966843 159.245697 22.387878
vertex 131.892227 188.227158 -46.509777
vertex 114.500122 183.280930 -34.751095
endloop
endfacet
facet normal -0.962421 -0.105294 0.250317
outer loop
vertex -163.985046 18.509909 91.014961
vertex -163.985046 -120.886314 32.378647
vertex -158.270065 -137.415771 47.398640
endloop
endfacet
facet normal -0.962421 -0.105295 0.250317
outer loop
vertex -163.985046 18.509909 91.014961
vertex -158.270065 -137.415771 47.398640
vertex -158.270065 7.938499 108.541183
endloop
endfacet
facet normal -0.783826 -0.520016 0.339411
outer loop
vertex -163.985046 18.509909 91.014961
vertex -175.120773 38.992680 96.680298
vertex -259.200836 101.801910 -1.261093
endloop
endfacet
facet normal -0.678569 -0.733551 0.038054
outer loop
vertex -163.985046 18.509909 91.014961
vertex -259.200836 101.801910 -1.261093
vertex -247.825104 91.219406 -2.406937
endloop
endfacet
facet normal 0.000000 0.921770 0.387738
outer loop
vertex -96.566742 86.288864 195.828323
vertex -112.803329 81.671265 206.805756
vertex -14.981760 29.959534 329.740143
endloop
endfacet
facet normal 0.000001 0.921770 0.387737
outer loop
vertex -96.566742 86.288864 195.828323
vertex -14.981760 29.959534 329.740143
vertex 1.254827 34.577133 318.762695
endloop
endfacet
facet normal 0.806352 0.229323 -0.545168
outer loop
vertex 131.892227 188.227158 -46.509777
vertex 177.358948 164.191925 10.629196
vertex 177.358948 88.570290 -21.180668
endloop
endfacet
facet normal 0.806352 0.229322 -0.545168
outer loop
vertex 177.358948 88.570290 -21.180668
vertex 177.358948 -78.311188 -91.378510
vertex 131.892227 -54.275967 -148.517487
endloop
endfacet
facet normal 0.806352 0.229322 -0.545168
outer loop
vertex 177.358948 88.570290 -21.180668
vertex 131.892227 -54.275967 -148.517487
vertex 131.892227 90.459167 -87.635391
endloop
endfacet
facet normal 0.806352 0.229322 -0.545168
outer loop
vertex 131.892227 112.605515 -78.319641
vertex 131.892227 188.227158 -46.509777
vertex 177.358948 88.570290 -21.180668
endloop
endfacet
facet normal 0.806351 0.229323 -0.545168
outer loop
vertex 177.358948 88.570290 -21.180668
vertex 131.892227 90.459167 -87.635391
vertex 131.892227 112.605515 -78.319641
endloop
endfacet
facet normal 0.806350 0.229322 -0.545171
outer loop
vertex 131.892227 112.605515 -78.319641
vertex 115.041519 121.513351 -99.496262
vertex 30.961452 184.322571 -197.437653
endloop
endfacet
facet normal 0.806352 0.229322 -0.545168
outer loop
vertex 30.961452 184.322571 -197.437653
vertex 30.961454 241.582504 -173.351562
vertex 115.041527 197.134995 -67.686401
endloop
endfacet
facet normal 0.806352 0.229322 -0.545168
outer loop
vertex 115.041527 197.134995 -67.686401
vertex 131.892227 188.227158 -46.509777
vertex 131.892227 112.605515 -78.319641
endloop
endfacet
facet normal 0.806351 0.229322 -0.545168
outer loop
vertex 30.961452 184.322571 -197.437653
vertex 115.041527 197.134995 -67.686401
vertex 131.892227 112.605515 -78.319641
endloop
endfacet
facet normal 0.591436 -0.312653 0.743271
outer loop
vertex -96.566750 10.667217 164.018463
vertex -112.803337 6.049618 174.995895
vertex -112.803345 -161.451004 104.537613
endloop
endfacet
facet normal 0.591437 -0.312653 0.743270
outer loop
vertex -112.803345 -161.451004 104.537613
vertex -87.639717 -177.380905 77.813530
vertex 151.520447 -109.364975 -83.880875
endloop
endfacet
facet normal 0.591436 -0.312653 0.743271
outer loop
vertex 151.520447 -109.364975 -83.880875
vertex 177.358948 -78.311188 -91.378510
vertex 177.358948 88.570290 -21.180668
endloop
endfacet
facet normal 0.591437 -0.312653 0.743270
outer loop
vertex 159.966843 83.624062 -9.421986
vertex -96.566750 10.667217 164.018463
vertex -112.803345 -161.451004 104.537613
endloop
endfacet
facet normal 0.591437 -0.312653 0.743270
outer loop
vertex 151.520447 -109.364975 -83.880875
vertex 177.358948 88.570290 -21.180668
vertex 159.966843 83.624062 -9.421986
endloop
endfacet
facet normal 0.591437 -0.312653 0.743270
outer loop
vertex -112.803345 -161.451004 104.537613
vertex 151.520447 -109.364975 -83.880875
vertex 159.966843 83.624062 -9.421986
endloop
endfacet
facet normal 0.806352 0.229322 -0.545168
outer loop
vertex 177.358948 88.570290 -21.180668
vertex 177.358948 164.191925 10.629196
vertex 275.180542 112.480209 133.563568
endloop
endfacet
facet normal 0.806351 0.229322 -0.545169
outer loop
vertex 177.358948 88.570290 -21.180668
vertex 275.180542 112.480209 133.563568
vertex 275.180542 36.858566 101.753708
endloop
endfacet
facet normal -0.806352 -0.229322 0.545168
outer loop
vertex -112.803329 81.671265 206.805756
vertex -112.803337 6.049618 174.995895
vertex -14.981763 -45.662109 297.930298
endloop
endfacet
facet normal -0.806351 -0.229322 0.545168
outer loop
vertex -112.803329 81.671265 206.805756
vertex -14.981763 -45.662109 297.930298
vertex -14.981760 29.959534 329.740143
endloop
endfacet
facet normal -0.720037 -0.619703 0.312274
outer loop
vertex -14.981763 -45.662109 297.930298
vertex -112.803337 6.049618 174.995895
vertex -38.192032 -144.432159 48.405094
endloop
endfacet
facet normal -0.720037 -0.619703 0.312274
outer loop
vertex -14.981763 -45.662109 297.930298
vertex -38.192032 -144.432159 48.405094
vertex 16.246044 -173.209930 116.818542
endloop
endfacet
facet normal 0.000001 -0.921770 -0.387737
outer loop
vertex 91.058662 -107.673935 -38.980331
vertex 95.860306 -106.308365 -42.226688
vertex 150.298386 -135.086136 26.186756
endloop
endfacet
facet normal -0.000000 -0.921770 -0.387738
outer loop
vertex 150.298386 -135.086136 26.186756
vertex 16.246044 -173.209930 116.818542
vertex -38.192032 -144.432159 48.405094
endloop
endfacet
facet normal 0.000000 -0.921770 -0.387737
outer loop
vertex -30.498405 -142.244141 43.203495
vertex 91.058662 -107.673935 -38.980331
vertex 150.298386 -135.086136 26.186756
endloop
endfacet
facet normal 0.000000 -0.921767 -0.387744
outer loop
vertex -30.498405 -142.244141 43.203495
vertex 150.298386 -135.086136 26.186756
vertex -38.192032 -144.432159 48.405094
endloop
endfacet
facet normal -0.591366 0.326920 -0.737163
outer loop
vertex 159.966843 83.624062 -9.421986
vertex 177.358948 88.570290 -21.180668
vertex 95.860306 -106.308365 -42.226688
endloop
endfacet
facet normal -0.591366 0.326921 -0.737163
outer loop
vertex 159.966843 83.624062 -9.421986
vertex 95.860306 -106.308365 -42.226688
vertex 91.058662 -107.673935 -38.980331
endloop
endfacet
facet normal 0.713408 -0.226742 -0.663052
outer loop
vertex 177.358948 88.570290 -21.180668
vertex 275.180542 36.858566 101.753708
vertex 150.298386 -135.086136 26.186756
endloop
endfacet
facet normal 0.713408 -0.226742 -0.663052
outer loop
vertex 177.358948 88.570290 -21.180668
vertex 150.298386 -135.086136 26.186756
vertex 95.860306 -106.308365 -42.226688
endloop
endfacet
facet normal 0.000000 0.921770 0.387738
outer loop
vertex 115.829147 -15.552391 -108.888115
vertex 94.561356 -4.309532 -135.615784
vertex 46.044453 -18.107464 -102.813896
endloop
endfacet
facet normal 0.000000 0.921770 0.387738
outer loop
vertex 115.829147 -15.552391 -108.888115
vertex 46.044453 -18.107464 -102.813896
vertex 67.312256 -29.350327 -76.086220
endloop
endfacet
facet normal -0.806352 -0.229322 0.545168
outer loop
vertex 67.312256 -29.350327 -76.086220
vertex 46.044453 -18.107464 -102.813896
vertex 46.044453 -67.228271 -123.476318
endloop
endfacet
facet normal -0.806351 -0.229322 0.545168
outer loop
vertex 67.312256 -29.350327 -76.086220
vertex 46.044453 -67.228271 -123.476318
vertex 67.312248 -78.471130 -96.748634
endloop
endfacet
facet normal 0.000000 -0.921770 -0.387738
outer loop
vertex 67.312248 -78.471130 -96.748634
vertex 46.044453 -67.228271 -123.476318
vertex 94.561333 -53.430340 -156.278198
endloop
endfacet
facet normal -0.000000 -0.921770 -0.387738
outer loop
vertex 67.312248 -78.471130 -96.748634
vertex 94.561333 -53.430340 -156.278198
vertex 115.829124 -64.673203 -129.550522
endloop
endfacet
facet normal 0.806352 0.229322 -0.545168
outer loop
vertex 115.829124 -64.673203 -129.550522
vertex 94.561333 -53.430340 -156.278198
vertex 94.561356 -4.309532 -135.615784
endloop
endfacet
facet normal 0.806352 0.229322 -0.545168
outer loop
vertex 115.829124 -64.673203 -129.550522
vertex 94.561356 -4.309532 -135.615784
vertex 115.829147 -15.552391 -108.888115
endloop
endfacet
facet normal 0.591436 -0.312653 0.743271
outer loop
vertex 67.312256 -29.350327 -76.086220
vertex 67.312248 -78.471130 -96.748634
vertex 115.829124 -64.673203 -129.550522
endloop
endfacet
facet normal 0.591436 -0.312653 0.743271
outer loop
vertex 67.312256 -29.350327 -76.086220
vertex 115.829124 -64.673203 -129.550522
vertex 115.829147 -15.552391 -108.888115
endloop
endfacet
facet normal -0.000001 0.921770 0.387738
outer loop
vertex 87.371643 -48.878876 -148.642654
vertex 53.234142 -58.587387 -125.562569
vertex 54.890770 -59.463135 -123.480652
endloop
endfacet
facet normal 0.000000 0.921770 0.387738
outer loop
vertex 87.371643 -48.878876 -148.642654
vertex 54.890770 -59.463135 -123.480652
vertex 89.028259 -49.754620 -146.560745
endloop
endfacet
facet normal -0.591436 0.312655 -0.743270
outer loop
vertex 87.371658 -12.950417 -133.529541
vertex 53.234165 -22.658920 -110.449463
vertex 46.044453 -18.107464 -102.813896
endloop
endfacet
facet normal -0.591436 0.312653 -0.743271
outer loop
vertex 87.371658 -12.950417 -133.529541
vertex 46.044453 -18.107464 -102.813896
vertex 94.561356 -4.309532 -135.615784
endloop
endfacet
facet normal -0.591436 0.312653 -0.743271
outer loop
vertex 53.234165 -22.658920 -110.449463
vertex 53.234142 -58.587387 -125.562569
vertex 46.044453 -67.228271 -123.476318
endloop
endfacet
facet normal -0.591436 0.312653 -0.743271
outer loop
vertex 53.234165 -22.658920 -110.449463
vertex 46.044453 -67.228271 -123.476318
vertex 46.044453 -18.107464 -102.813896
endloop
endfacet
facet normal -0.591436 0.312655 -0.743271
outer loop
vertex 53.234142 -58.587387 -125.562569
vertex 87.371643 -48.878876 -148.642654
vertex 94.561333 -53.430340 -156.278198
endloop
endfacet
facet normal -0.591436 0.312652 -0.743271
outer loop
vertex 53.234142 -58.587387 -125.562569
vertex 94.561333 -53.430340 -156.278198
vertex 46.044453 -67.228271 -123.476318
endloop
endfacet
facet normal -0.591435 0.312653 -0.743272
outer loop
vertex 87.371643 -48.878876 -148.642654
vertex 87.371658 -12.950417 -133.529541
vertex 94.561356 -4.309532 -135.615784
endloop
endfacet
facet normal -0.591439 0.312652 -0.743269
outer loop
vertex 87.371643 -48.878876 -148.642654
vertex 94.561356 -4.309532 -135.615784
vertex 94.561333 -53.430340 -156.278198
endloop
endfacet
facet normal 0.000000 0.921770 0.387737
outer loop
vertex 89.028259 -49.754620 -146.560745
vertex 54.890770 -59.463135 -123.480652
vertex 66.336060 -65.513489 -109.097130
endloop
endfacet
facet normal 0.000001 0.921770 0.387737
outer loop
vertex 89.028259 -49.754620 -146.560745
vertex 66.336060 -65.513489 -109.097130
vertex 100.473534 -55.804981 -132.177216
endloop
endfacet
facet normal 0.000001 -0.921770 -0.387737
outer loop
vertex 53.234165 -22.658920 -110.449463
vertex 87.371658 -12.950417 -133.529541
vertex 89.028275 -13.826160 -131.447632
endloop
endfacet
facet normal 0.000000 -0.921770 -0.387737
outer loop
vertex 53.234165 -22.658920 -110.449463
vertex 89.028275 -13.826160 -131.447632
vertex 54.890793 -23.534668 -108.367538
endloop
endfacet
facet normal -0.806353 -0.229322 0.545167
outer loop
vertex 87.371658 -12.950417 -133.529541
vertex 87.371643 -48.878876 -148.642654
vertex 89.028259 -49.754620 -146.560745
endloop
endfacet
facet normal -0.806353 -0.229321 0.545167
outer loop
vertex 87.371658 -12.950417 -133.529541
vertex 89.028259 -49.754620 -146.560745
vertex 89.028275 -13.826160 -131.447632
endloop
endfacet
facet normal 0.806349 0.229323 -0.545172
outer loop
vertex 53.234142 -58.587387 -125.562569
vertex 53.234165 -22.658920 -110.449463
vertex 54.890793 -23.534668 -108.367538
endloop
endfacet
facet normal 0.806351 0.229322 -0.545170
outer loop
vertex 53.234142 -58.587387 -125.562569
vertex 54.890793 -23.534668 -108.367538
vertex 54.890770 -59.463135 -123.480652
endloop
endfacet
facet normal 0.806352 0.229322 -0.545168
outer loop
vertex -242.964264 130.323181 -2.183575
vertex -242.964264 147.001312 4.831993
vertex -227.700745 138.932495 24.013969
endloop
endfacet
facet normal 0.806351 0.229323 -0.545168
outer loop
vertex -242.964264 130.323181 -2.183575
vertex -227.700745 138.932495 24.013969
vertex -227.700745 122.254379 16.998402
endloop
endfacet
facet normal -0.591365 0.326921 -0.737164
outer loop
vertex -112.803337 6.049618 174.995895
vertex -96.566750 10.667217 164.018463
vertex -30.498405 -142.244141 43.203495
endloop
endfacet
facet normal -0.591365 0.326920 -0.737164
outer loop
vertex -112.803337 6.049618 174.995895
vertex -30.498405 -142.244141 43.203495
vertex -38.192032 -144.432159 48.405094
endloop
endfacet
facet normal 0.591437 -0.312653 0.743271
outer loop
vertex -14.981760 29.959534 329.740143
vertex -14.981763 -45.662109 297.930298
vertex 275.180542 36.858566 101.753708
endloop
endfacet
facet normal 0.591437 -0.312652 0.743271
outer loop
vertex 275.180542 36.858566 101.753708
vertex 275.180542 112.480209 133.563568
vertex 257.788422 107.533981 145.322250
endloop
endfacet
facet normal 0.591437 -0.312649 0.743272
outer loop
vertex 1.254827 34.577133 318.762695
vertex -14.981760 29.959534 329.740143
vertex 275.180542 36.858566 101.753708
endloop
endfacet
facet normal 0.591436 -0.312653 0.743270
outer loop
vertex 275.180542 36.858566 101.753708
vertex 257.788422 107.533981 145.322250
vertex 1.254827 34.577133 318.762695
endloop
endfacet
facet normal 0.547970 -0.636516 0.542749
outer loop
vertex 275.180542 36.858566 101.753708
vertex -14.981763 -45.662109 297.930298
vertex 16.246044 -173.209930 116.818542
endloop
endfacet
facet normal 0.547970 -0.636516 0.542749
outer loop
vertex 275.180542 36.858566 101.753708
vertex 16.246044 -173.209930 116.818542
vertex 150.298386 -135.086136 26.186756
endloop
endfacet
facet normal 0.000000 0.921770 0.387738
outer loop
vertex 159.966843 159.245697 22.387878
vertex -96.566742 86.288864 195.828323
vertex 1.254827 34.577133 318.762695
endloop
endfacet
facet normal 0.000000 0.921770 0.387738
outer loop
vertex 159.966843 159.245697 22.387878
vertex 1.254827 34.577133 318.762695
vertex 257.788422 107.533981 145.322250
endloop
endfacet
facet normal -0.591436 0.312653 -0.743271
outer loop
vertex 13.569341 203.280029 -175.624023
vertex 13.569340 179.376343 -185.678986
vertex -242.964264 106.419510 -12.238533
endloop
endfacet
facet normal -0.591437 0.312653 -0.743270
outer loop
vertex 13.569341 203.280029 -175.624023
vertex -242.964264 106.419510 -12.238533
vertex -242.964264 130.323181 -2.183575
endloop
endfacet
facet normal 0.000000 0.921770 0.387738
outer loop
vertex -112.803329 81.671265 206.805756
vertex -96.566742 86.288864 195.828323
vertex -142.033478 110.324081 138.689346
endloop
endfacet
facet normal -0.000000 0.921770 0.387738
outer loop
vertex -112.803329 81.671265 206.805756
vertex -142.033478 110.324081 138.689346
vertex -158.270065 105.706482 149.666794
endloop
endfacet
facet normal 0.000000 0.921769 0.387739
outer loop
vertex -175.120773 114.614319 128.490158
vertex -158.884186 119.231918 117.512726
vertex -242.964264 163.679443 11.847569
endloop
endfacet
facet normal -0.000000 0.921770 0.387738
outer loop
vertex -175.120773 114.614319 128.490158
vertex -242.964264 163.679443 11.847569
vertex -259.200836 159.061829 22.825008
endloop
endfacet
facet normal -0.439482 -0.384528 -0.811784
outer loop
vertex 13.569340 179.376343 -185.678986
vertex 30.961452 184.322571 -197.437653
vertex 30.443523 170.357574 -190.542267
endloop
endfacet
facet normal -0.439483 -0.384527 -0.811784
outer loop
vertex 30.443523 170.357574 -190.542267
vertex -247.825104 91.219406 -2.406937
vertex -259.200836 101.801910 -1.261093
endloop
endfacet
facet normal -0.439483 -0.384530 -0.811783
outer loop
vertex -242.964264 106.419510 -12.238533
vertex 13.569340 179.376343 -185.678986
vertex 30.443523 170.357574 -190.542267
endloop
endfacet
facet normal -0.439475 -0.384537 -0.811784
outer loop
vertex 30.443523 170.357574 -190.542267
vertex -259.200836 101.801910 -1.261093
vertex -242.964264 106.419510 -12.238533
endloop
endfacet
facet normal 0.000000 0.921770 0.387738
outer loop
vertex -158.270065 105.706482 149.666794
vertex -142.033478 110.324081 138.689346
vertex -158.884186 119.231918 117.512726
endloop
endfacet
facet normal 0.000000 0.921770 0.387737
outer loop
vertex -158.270065 105.706482 149.666794
vertex -158.884186 119.231918 117.512726
vertex -175.120773 114.614319 128.490158
endloop
endfacet
facet normal -0.000000 0.921770 0.387738
outer loop
vertex 177.358948 164.191925 10.629196
vertex 159.966843 159.245697 22.387878
vertex 257.788422 107.533981 145.322250
endloop
endfacet
facet normal 0.000000 0.921770 0.387738
outer loop
vertex 177.358948 164.191925 10.629196
vertex 257.788422 107.533981 145.322250
vertex 275.180542 112.480209 133.563568
endloop
endfacet
facet normal -0.591437 0.312652 -0.743270
outer loop
vertex -242.964264 130.323181 -2.183575
vertex -242.964264 106.419510 -12.238533
vertex -259.200836 101.801910 -1.261093
endloop
endfacet
facet normal -0.591437 0.312653 -0.743270
outer loop
vertex -259.200836 101.801910 -1.261093
vertex -259.200836 159.061829 22.825008
vertex -242.964264 163.679443 11.847569
endloop
endfacet
facet normal -0.591437 0.312653 -0.743270
outer loop
vertex 13.569342 236.636276 -161.592880
vertex 30.961454 241.582504 -173.351562
vertex 30.961452 184.322571 -197.437653
endloop
endfacet
facet normal -0.591437 0.312653 -0.743270
outer loop
vertex -242.964264 147.001312 4.831993
vertex -242.964264 130.323181 -2.183575
vertex -259.200836 101.801910 -1.261093
endloop
endfacet
facet normal -0.591437 0.312652 -0.743270
outer loop
vertex -242.964264 147.001312 4.831993
vertex -259.200836 101.801910 -1.261093
vertex -242.964264 163.679443 11.847569
endloop
endfacet
facet normal -0.591436 0.312653 -0.743271
outer loop
vertex 30.961452 184.322571 -197.437653
vertex 13.569340 179.376343 -185.678986
vertex 13.569341 203.280029 -175.624023
endloop
endfacet
facet normal -0.591437 0.312654 -0.743270
outer loop
vertex 13.569341 219.958145 -168.608459
vertex -242.964264 147.001312 4.831993
vertex -242.964264 163.679443 11.847569
endloop
endfacet
facet normal -0.591437 0.312653 -0.743270
outer loop
vertex 30.961452 184.322571 -197.437653
vertex 13.569341 203.280029 -175.624023
vertex 13.569341 219.958145 -168.608459
endloop
endfacet
facet normal -0.591436 0.312653 -0.743271
outer loop
vertex 13.569341 219.958145 -168.608459
vertex -242.964264 163.679443 11.847569
vertex 13.569342 236.636276 -161.592880
endloop
endfacet
facet normal -0.591433 0.312654 -0.743273
outer loop
vertex 13.569342 236.636276 -161.592880
vertex 30.961452 184.322571 -197.437653
vertex 13.569341 219.958145 -168.608459
endloop
endfacet
facet normal -0.591365 0.326921 -0.737164
outer loop
vertex -96.566750 10.667217 164.018463
vertex 159.966843 83.624062 -9.421986
vertex 91.058662 -107.673935 -38.980331
endloop
endfacet
facet normal -0.591365 0.326921 -0.737163
outer loop
vertex -96.566750 10.667217 164.018463
vertex 91.058662 -107.673935 -38.980331
vertex -30.498405 -142.244141 43.203495
endloop
endfacet
facet normal 0.000000 0.921770 0.387738
outer loop
vertex -96.566742 86.288864 195.828323
vertex 159.966843 159.245697 22.387878
vertex 114.500122 183.280930 -34.751095
endloop
endfacet
facet normal -0.000000 0.921770 0.387738
outer loop
vertex -96.566742 86.288864 195.828323
vertex 114.500122 183.280930 -34.751095
vertex -142.033478 110.324081 138.689346
endloop
endfacet
facet normal -0.000000 0.921770 0.387738
outer loop
vertex -158.884186 119.231918 117.512726
vertex 97.649414 192.188766 -55.927715
vertex 13.569342 236.636276 -161.592880
endloop
endfacet
facet normal 0.000000 0.921770 0.387738
outer loop
vertex -158.884186 119.231918 117.512726
vertex 13.569342 236.636276 -161.592880
vertex -242.964264 163.679443 11.847569
endloop
endfacet
facet normal -0.000000 0.921770 0.387738
outer loop
vertex -142.033478 110.324081 138.689346
vertex 114.500122 183.280930 -34.751095
vertex 97.649414 192.188766 -55.927715
endloop
endfacet
facet normal 0.000000 0.921770 0.387738
outer loop
vertex -142.033478 110.324081 138.689346
vertex 97.649414 192.188766 -55.927715
vertex -158.884186 119.231918 117.512726
endloop
endfacet
facet normal -0.591436 0.312652 -0.743271
outer loop
vertex 28.832861 211.889343 -149.426483
vertex 28.832859 195.211212 -156.442047
vertex -227.700745 122.254379 16.998402
endloop
endfacet
facet normal -0.591437 0.312653 -0.743270
outer loop
vertex 28.832861 211.889343 -149.426483
vertex -227.700745 122.254379 16.998402
vertex -227.700745 138.932495 24.013969
endloop
endfacet
facet normal -0.000000 -0.921769 -0.387738
outer loop
vertex -242.964264 147.001312 4.831993
vertex 13.569341 219.958145 -168.608459
vertex 28.832861 211.889343 -149.426483
endloop
endfacet
facet normal -0.000000 -0.921769 -0.387738
outer loop
vertex -242.964264 147.001312 4.831993
vertex 28.832861 211.889343 -149.426483
vertex -227.700745 138.932495 24.013969
endloop
endfacet
facet normal -0.806352 -0.229322 0.545168
outer loop
vertex 13.569341 219.958145 -168.608459
vertex 13.569341 203.280029 -175.624023
vertex 28.832859 195.211212 -156.442047
endloop
endfacet
facet normal -0.806352 -0.229322 0.545168
outer loop
vertex 13.569341 219.958145 -168.608459
vertex 28.832859 195.211212 -156.442047
vertex 28.832861 211.889343 -149.426483
endloop
endfacet
facet normal -0.000000 0.921770 0.387737
outer loop
vertex 13.569341 203.280029 -175.624023
vertex -242.964264 130.323181 -2.183575
vertex -227.700745 122.254379 16.998402
endloop
endfacet
facet normal 0.000000 0.921769 0.387739
outer loop
vertex 13.569341 203.280029 -175.624023
vertex -227.700745 122.254379 16.998402
vertex 28.832859 195.211212 -156.442047
endloop
endfacet
facet normal -0.591436 0.312653 -0.743271
outer loop
vertex 66.336060 -65.513489 -109.097130
vertex 66.336060 -29.585030 -93.984009
vertex 100.473549 -19.876522 -117.064087
endloop
endfacet
facet normal -0.591437 0.312653 -0.743270
outer loop
vertex 66.336060 -65.513489 -109.097130
vertex 100.473549 -19.876522 -117.064087
vertex 100.473534 -55.804981 -132.177216
endloop
endfacet
facet normal -0.000000 -0.921770 -0.387737
outer loop
vertex 54.890793 -23.534668 -108.367538
vertex 89.028275 -13.826160 -131.447632
vertex 100.473549 -19.876522 -117.064087
endloop
endfacet
facet normal 0.000000 -0.921770 -0.387738
outer loop
vertex 54.890793 -23.534668 -108.367538
vertex 100.473549 -19.876522 -117.064087
vertex 66.336060 -29.585030 -93.984009
endloop
endfacet
facet normal -0.806352 -0.229322 0.545168
outer loop
vertex 89.028275 -13.826160 -131.447632
vertex 89.028259 -49.754620 -146.560745
vertex 100.473534 -55.804981 -132.177216
endloop
endfacet
facet normal -0.806352 -0.229322 0.545168
outer loop
vertex 89.028275 -13.826160 -131.447632
vertex 100.473534 -55.804981 -132.177216
vertex 100.473549 -19.876522 -117.064087
endloop
endfacet
facet normal -0.591436 0.312653 -0.743271
outer loop
vertex 54.890770 -59.463135 -123.480652
vertex 54.890793 -23.534668 -108.367538
vertex 89.428978 -13.712208 -131.718536
endloop
endfacet
facet normal -0.591436 0.312653 -0.743271
outer loop
vertex 54.890770 -59.463135 -123.480652
vertex 89.428978 -13.712208 -131.718536
vertex 89.428963 -49.640667 -146.831650
endloop
endfacet
facet normal 0.806352 0.229322 -0.545167
outer loop
vertex 89.428963 -49.640667 -146.831650
vertex 89.428978 -13.712208 -131.718536
vertex 100.874252 -19.762569 -117.334991
endloop
endfacet
facet normal 0.806352 0.229322 -0.545168
outer loop
vertex 89.428963 -49.640667 -146.831650
vertex 100.874252 -19.762569 -117.334991
vertex 100.874252 -55.691025 -132.448120
endloop
endfacet
facet normal 0.000000 0.921770 0.387738
outer loop
vertex 54.890793 -23.534668 -108.367538
vertex 66.336060 -29.585030 -93.984009
vertex 100.874252 -19.762569 -117.334991
endloop
endfacet
facet normal 0.000000 0.921770 0.387737
outer loop
vertex 54.890793 -23.534668 -108.367538
vertex 100.874252 -19.762569 -117.334991
vertex 89.428978 -13.712208 -131.718536
endloop
endfacet
facet normal 0.591436 -0.312653 0.743271
outer loop
vertex 66.336060 -29.585030 -93.984009
vertex 66.336060 -65.513489 -109.097130
vertex 100.874252 -55.691025 -132.448120
endloop
endfacet
facet normal 0.591436 -0.312653 0.743271
outer loop
vertex 66.336060 -29.585030 -93.984009
vertex 100.874252 -55.691025 -132.448120
vertex 100.874252 -19.762569 -117.334991
endloop
endfacet
facet normal 0.000000 -0.921770 -0.387738
outer loop
vertex 66.336060 -65.513489 -109.097130
vertex 54.890770 -59.463135 -123.480652
vertex 89.428963 -49.640667 -146.831650
endloop
endfacet
facet normal -0.000001 -0.921770 -0.387738
outer loop
vertex 66.336060 -65.513489 -109.097130
vertex 89.428963 -49.640667 -146.831650
vertex 100.874252 -55.691025 -132.448120
endloop
endfacet
facet normal -0.975865 -0.084672 0.201290
outer loop
vertex 180.680023 -103.950150 83.978622
vertex 180.680023 -151.083694 64.152138
vertex 185.769928 -168.520111 81.493729
endloop
endfacet
facet normal -0.975865 -0.084672 0.201290
outer loop
vertex 180.680023 -103.950150 83.978622
vertex 185.769928 -168.520111 81.493729
vertex 185.769928 -104.152458 108.569656
endloop
endfacet
facet normal -0.806352 -0.229322 0.545167
outer loop
vertex 233.557648 -145.189758 53.281784
vertex 233.557648 -100.301651 72.163734
vertex 225.919342 -96.263779 62.564491
endloop
endfacet
facet normal -0.806352 -0.229322 0.545167
outer loop
vertex 233.557648 -145.189758 53.281784
vertex 225.919342 -96.263779 62.564491
vertex 225.919342 -141.151886 43.682541
endloop
endfacet
facet normal 0.806352 0.229322 -0.545168
outer loop
vertex 221.911804 -92.224045 56.102127
vertex 221.911804 -139.357574 36.275642
vertex 123.764595 -87.473709 -87.067978
endloop
endfacet
facet normal 0.806352 0.229322 -0.545169
outer loop
vertex 221.911804 -92.224045 56.102127
vertex 123.764595 -87.473709 -87.067978
vertex 123.764603 -40.340172 -67.241501
endloop
endfacet
facet normal -0.591436 0.312653 -0.743271
outer loop
vertex 123.764603 -40.340172 -67.241501
vertex 123.764595 -87.473709 -87.067978
vertex 82.532814 -99.199821 -59.191486
endloop
endfacet
facet normal -0.591436 0.312653 -0.743271
outer loop
vertex 123.764603 -40.340172 -67.241501
vertex 82.532814 -99.199821 -59.191486
vertex 82.532822 -52.066280 -39.365002
endloop
endfacet
facet normal 0.000000 0.921770 0.387738
outer loop
vertex 180.680023 -103.950150 83.978622
vertex 221.911804 -92.224045 56.102127
vertex 123.764603 -40.340172 -67.241501
endloop
endfacet
facet normal -0.000000 0.921770 0.387738
outer loop
vertex 180.680023 -103.950150 83.978622
vertex 123.764603 -40.340172 -67.241501
vertex 82.532822 -52.066280 -39.365002
endloop
endfacet
facet normal 0.000000 -0.921770 -0.387737
outer loop
vertex 221.911804 -139.357574 36.275642
vertex 180.680023 -151.083694 64.152138
vertex 82.532814 -99.199821 -59.191486
endloop
endfacet
facet normal 0.000000 -0.921770 -0.387738
outer loop
vertex 221.911804 -139.357574 36.275642
vertex 82.532814 -99.199821 -59.191486
vertex 123.764595 -87.473709 -87.067978
endloop
endfacet
facet normal -0.237211 -0.718985 -0.653293
outer loop
vertex 242.077881 -152.506424 43.424328
vertex 185.769928 -168.520111 81.493729
vertex 180.680023 -151.083694 64.152138
endloop
endfacet
facet normal -0.237211 -0.718984 -0.653294
outer loop
vertex 242.077881 -152.506424 43.424328
vertex 180.680023 -151.083694 64.152138
vertex 221.911804 -139.357574 36.275642
endloop
endfacet
facet normal -0.237211 0.969780 0.057077
outer loop
vertex 185.769928 -104.152458 108.569656
vertex 242.077881 -88.138763 70.500259
vertex 221.911804 -92.224045 56.102127
endloop
endfacet
facet normal -0.237211 0.969780 0.057077
outer loop
vertex 185.769928 -104.152458 108.569656
vertex 221.911804 -92.224045 56.102127
vertex 180.680023 -103.950150 83.978622
endloop
endfacet
facet normal 0.501443 0.335467 -0.797507
outer loop
vertex 242.077881 -88.138763 70.500259
vertex 242.077881 -152.506424 43.424328
vertex 221.911804 -139.357574 36.275642
endloop
endfacet
facet normal 0.501442 0.335467 -0.797507
outer loop
vertex 242.077881 -88.138763 70.500259
vertex 221.911804 -139.357574 36.275642
vertex 221.911804 -92.224045 56.102127
endloop
endfacet
facet normal -0.806352 -0.229322 0.545168
outer loop
vertex 82.532822 -52.066280 -39.365002
vertex 82.532814 -99.199821 -59.191486
vertex 180.680023 -151.083694 64.152138
endloop
endfacet
facet normal -0.806352 -0.229322 0.545168
outer loop
vertex 82.532822 -52.066280 -39.365002
vertex 180.680023 -151.083694 64.152138
vertex 180.680023 -103.950150 83.978622
endloop
endfacet
facet normal 0.591437 -0.312652 0.743270
outer loop
vertex 194.290161 -156.357224 79.830246
vertex 194.290161 -111.469131 98.712196
vertex 185.769928 -104.152458 108.569656
endloop
endfacet
facet normal 0.591437 -0.312653 0.743270
outer loop
vertex 194.290161 -156.357224 79.830246
vertex 185.769928 -104.152458 108.569656
vertex 185.769928 -168.520111 81.493729
endloop
endfacet
facet normal 0.591436 -0.312654 0.743270
outer loop
vertex 194.290161 -111.469131 98.712196
vertex 233.557648 -100.301651 72.163734
vertex 242.077881 -88.138763 70.500259
endloop
endfacet
facet normal 0.591437 -0.312653 0.743270
outer loop
vertex 194.290161 -111.469131 98.712196
vertex 242.077881 -88.138763 70.500259
vertex 185.769928 -104.152458 108.569656
endloop
endfacet
facet normal 0.591436 -0.312653 0.743271
outer loop
vertex 233.557648 -145.189758 53.281784
vertex 194.290161 -156.357224 79.830246
vertex 185.769928 -168.520111 81.493729
endloop
endfacet
facet normal 0.591436 -0.312651 0.743271
outer loop
vertex 233.557648 -145.189758 53.281784
vertex 185.769928 -168.520111 81.493729
vertex 242.077881 -152.506424 43.424328
endloop
endfacet
facet normal 0.591437 -0.312653 0.743270
outer loop
vertex 233.557648 -100.301651 72.163734
vertex 233.557648 -145.189758 53.281784
vertex 242.077881 -152.506424 43.424328
endloop
endfacet
facet normal 0.591436 -0.312655 0.743271
outer loop
vertex 233.557648 -100.301651 72.163734
vertex 242.077881 -152.506424 43.424328
vertex 242.077881 -88.138763 70.500259
endloop
endfacet
facet normal 0.591436 -0.312653 0.743271
outer loop
vertex 186.651840 -107.431259 89.112953
vertex 186.651840 -152.319351 70.231003
vertex 225.919342 -141.151886 43.682541
endloop
endfacet
facet normal 0.591437 -0.312653 0.743270
outer loop
vertex 186.651840 -107.431259 89.112953
vertex 225.919342 -141.151886 43.682541
vertex 225.919342 -96.263779 62.564491
endloop
endfacet
facet normal 0.000000 -0.921770 -0.387737
outer loop
vertex 233.557648 -100.301651 72.163734
vertex 194.290161 -111.469131 98.712196
vertex 186.651840 -107.431259 89.112953
endloop
endfacet
facet normal 0.000000 -0.921770 -0.387738
outer loop
vertex 233.557648 -100.301651 72.163734
vertex 186.651840 -107.431259 89.112953
vertex 225.919342 -96.263779 62.564491
endloop
endfacet
facet normal 0.000000 0.921769 0.387739
outer loop
vertex 194.290161 -156.357224 79.830246
vertex 233.557648 -145.189758 53.281784
vertex 225.919342 -141.151886 43.682541
endloop
endfacet
facet normal 0.000000 0.921771 0.387735
outer loop
vertex 194.290161 -156.357224 79.830246
vertex 225.919342 -141.151886 43.682541
vertex 186.651840 -152.319351 70.231003
endloop
endfacet
facet normal 0.806352 0.229321 -0.545168
outer loop
vertex 194.290161 -111.469131 98.712196
vertex 194.290161 -156.357224 79.830246
vertex 186.651840 -152.319351 70.231003
endloop
endfacet
facet normal 0.806352 0.229323 -0.545168
outer loop
vertex 194.290161 -111.469131 98.712196
vertex 186.651840 -152.319351 70.231003
vertex 186.651840 -107.431259 89.112953
endloop
endfacet
facet normal 0.275789 0.944613 0.177896
outer loop
vertex 50.242348 55.480999 -88.157410
vertex 62.523048 48.989010 -72.723999
vertex 69.895782 48.018219 -78.999001
endloop
endfacet
facet normal 0.275789 0.944613 0.177896
outer loop
vertex 50.242348 55.480999 -88.157410
vertex 69.895782 48.018219 -78.999001
vertex 57.615082 54.510208 -94.432411
endloop
endfacet
facet normal 0.698321 0.659483 -0.278261
outer loop
vertex 57.615082 54.510208 -94.432411
vertex 69.895782 48.018219 -78.999001
vertex 73.818733 41.366566 -84.918564
endloop
endfacet
facet normal 0.698321 0.659484 -0.278260
outer loop
vertex 57.615082 54.510208 -94.432411
vertex 73.818733 41.366566 -84.918564
vertex 61.538033 47.858551 -100.351974
endloop
endfacet
facet normal 0.794101 0.065775 -0.604216
outer loop
vertex 61.538033 47.858551 -100.351974
vertex 73.818733 41.366566 -84.918564
vertex 72.456306 32.146427 -87.712860
endloop
endfacet
facet normal 0.794102 0.065774 -0.604216
outer loop
vertex 61.538033 47.858551 -100.351974
vertex 72.456306 32.146427 -87.712860
vertex 60.175606 38.638409 -103.146271
endloop
endfacet
facet normal 0.518313 -0.558711 -0.647452
outer loop
vertex 60.175606 38.638409 -103.146271
vertex 72.456306 32.146427 -87.712860
vertex 66.445999 24.672007 -86.074402
endloop
endfacet
facet normal 0.518313 -0.558711 -0.647452
outer loop
vertex 60.175606 38.638409 -103.146271
vertex 66.445999 24.672007 -86.074402
vertex 54.165298 31.163992 -101.507812
endloop
endfacet
facet normal -0.000000 -0.921770 -0.387738
outer loop
vertex 54.165298 31.163992 -101.507812
vertex 66.445999 24.672007 -86.074402
vertex 58.600098 22.440672 -80.769836
endloop
endfacet
facet normal -0.000001 -0.921770 -0.387737
outer loop
vertex 54.165298 31.163992 -101.507812
vertex 58.600098 22.440672 -80.769836
vertex 46.319397 28.932657 -96.203247
endloop
endfacet
facet normal -0.518313 -0.853522 0.053403
outer loop
vertex 46.319397 28.932657 -96.203247
vertex 58.600098 22.440672 -80.769836
vertex 52.589790 26.496490 -74.281250
endloop
endfacet
facet normal -0.518313 -0.853522 0.053403
outer loop
vertex 46.319397 28.932657 -96.203247
vertex 52.589790 26.496490 -74.281250
vertex 40.309090 32.988476 -89.714661
endloop
endfacet
facet normal -0.794101 -0.385902 0.469556
outer loop
vertex 40.309090 32.988476 -89.714661
vertex 52.589790 26.496490 -74.281250
vertex 51.227364 34.941700 -69.644699
endloop
endfacet
facet normal -0.794101 -0.385902 0.469556
outer loop
vertex 40.309090 32.988476 -89.714661
vertex 51.227364 34.941700 -69.644699
vertex 38.946663 41.433681 -85.078110
endloop
endfacet
facet normal 0.591437 -0.312652 0.743270
outer loop
vertex 73.818733 41.366566 -84.918564
vertex 69.895782 48.018219 -78.999001
vertex 62.523048 48.989010 -72.723999
endloop
endfacet
facet normal 0.591437 -0.312653 0.743271
outer loop
vertex 62.523048 48.989010 -72.723999
vertex 55.150307 43.824684 -69.029694
vertex 51.227364 34.941700 -69.644699
endloop
endfacet
facet normal 0.591436 -0.312653 0.743270
outer loop
vertex 51.227364 34.941700 -69.644699
vertex 52.589790 26.496490 -74.281250
vertex 58.600098 22.440672 -80.769836
endloop
endfacet
facet normal 0.591437 -0.312653 0.743270
outer loop
vertex 58.600098 22.440672 -80.769836
vertex 66.445999 24.672007 -86.074402
vertex 72.456306 32.146427 -87.712860
endloop
endfacet
facet normal 0.591436 -0.312654 0.743271
outer loop
vertex 72.456306 32.146427 -87.712860
vertex 73.818733 41.366566 -84.918564
vertex 62.523048 48.989010 -72.723999
endloop
endfacet
facet normal 0.591437 -0.312653 0.743271
outer loop
vertex 62.523048 48.989010 -72.723999
vertex 51.227364 34.941700 -69.644699
vertex 58.600098 22.440672 -80.769836
endloop
endfacet
facet normal 0.591437 -0.312653 0.743270
outer loop
vertex 62.523048 48.989010 -72.723999
vertex 58.600098 22.440672 -80.769836
vertex 72.456306 32.146427 -87.712860
endloop
endfacet
facet normal -0.698321 0.262286 0.665998
outer loop
vertex 38.946663 41.433681 -85.078110
vertex 51.227364 34.941700 -69.644699
vertex 55.150307 43.824684 -69.029694
endloop
endfacet
facet normal -0.698321 0.262286 0.665999
outer loop
vertex 38.946663 41.433681 -85.078110
vertex 55.150307 43.824684 -69.029694
vertex 42.869606 50.316673 -84.463104
endloop
endfacet
facet normal -0.275788 0.787748 0.550813
outer loop
vertex 42.869606 50.316673 -84.463104
vertex 55.150307 43.824684 -69.029694
vertex 62.523048 48.989010 -72.723999
endloop
endfacet
facet normal -0.275789 0.787747 0.550813
outer loop
vertex 42.869606 50.316673 -84.463104
vertex 62.523048 48.989010 -72.723999
vertex 50.242348 55.480999 -88.157410
endloop
endfacet
facet normal -0.591436 0.312653 -0.743271
outer loop
vertex 42.869606 50.316673 -84.463104
vertex 50.242348 55.480999 -88.157410
vertex 57.615082 54.510208 -94.432411
endloop
endfacet
facet normal -0.591438 0.312653 -0.743269
outer loop
vertex 57.615082 54.510208 -94.432411
vertex 61.538033 47.858551 -100.351974
vertex 60.175606 38.638409 -103.146271
endloop
endfacet
facet normal -0.591437 0.312654 -0.743270
outer loop
vertex 60.175606 38.638409 -103.146271
vertex 54.165298 31.163992 -101.507812
vertex 46.319397 28.932657 -96.203247
endloop
endfacet
facet normal -0.591436 0.312654 -0.743271
outer loop
vertex 46.319397 28.932657 -96.203247
vertex 40.309090 32.988476 -89.714661
vertex 38.946663 41.433681 -85.078110
endloop
endfacet
facet normal -0.591438 0.312652 -0.743270
outer loop
vertex 38.946663 41.433681 -85.078110
vertex 42.869606 50.316673 -84.463104
vertex 57.615082 54.510208 -94.432411
endloop
endfacet
facet normal -0.591437 0.312653 -0.743270
outer loop
vertex 57.615082 54.510208 -94.432411
vertex 60.175606 38.638409 -103.146271
vertex 46.319397 28.932657 -96.203247
endloop
endfacet
facet normal -0.591436 0.312653 -0.743271
outer loop
vertex 57.615082 54.510208 -94.432411
vertex 46.319397 28.932657 -96.203247
vertex 38.946663 41.433681 -85.078110
endloop
endfacet
endsolid Exported from Blender-3.6.4
